
<svg width="446" height="220" viewBox="0 0 446 220" fill="none" xmlns="http://www.w3.org/2000/svg">
  <path d="m97.122 173.026-8.24 12.205s-1.334 1.563-3.354-.366c-2.02-1.93-2.489-2.033-3.322-1.981-.735.046-2.393-2.807-4.552-4.452a7 7 0 0 0-.926-.606c-2.608-1.409-11.473-8.032-14.447-16.118-2.081-5.662-4.06-18.997.851-25.208 3.42-4.326 10.263-3.299 12.347 1.803a61 61 0 0 0 1.463 3.301c1.297 2.696 2.92 5.474 4.74 7.274 4.592 4.537 6.364 4.746 6.73 7.929.364 3.18-.627 5.839 2.087 7.562 2.71 1.721 7.823 4.901 6.623 8.657" fill="#0564FF"/>
  <path d="M88.88 185.231s-4.258-.745-4.583-6.964 3.712-8.445 6.023-8.79c3.106-.462 5.63 1.14 6.802 3.549l.784 1.529-9.023 10.676z" fill="#0564FF"/>
  <path d="M86.974 171.04c1.122-.949 2.383-1.419 3.348-1.563 3.103-.462 5.63 1.14 6.802 3.549m-8.243 12.204s-4.258-.748-4.583-6.964" stroke="#000" stroke-width=".635" stroke-miterlimit="10" stroke-linecap="round"/>
  <path d="M87.294 80.041c-.753.941-2.03 2.267-3.846 3.237-.781.415-1.66.763-2.64.99L70.571 68.2l1.901-1.088 5.567-3.188s5.22 6.136 9.445 13.797c.41.74.338 1.658-.19 2.321" fill="#0564FF"/>
  <path d="m90.56 57.76-4.142 5.857-9.941 14.055L56.129 56.62l7.015-16.665 7.983-11.053 18.35 27.25z" fill="#fff"/>
  <path d="m90.56 57.762-4.142 5.858c-5.974-5.827-5.776-11.44-5.776-11.44l8.835 3.975z" fill="#000"/>
  <path d="M63.144 39.955 56.13 56.62l20.348 21.052L90.56 57.76 71.127 28.902z" stroke="#000" stroke-width=".635" stroke-miterlimit="10" stroke-linecap="round"/>
  <path d="m106.11 42.259-2.636-7.253a7.3 7.3 0 0 1-.433-2.453c-.052-20.727-6.577-22.262-6.577-22.262l-28.066 9.386 3.433 18.465A32.43 32.43 0 0 0 88.452 60.83l4.715 2.515c.844.451 1.796.691 2.752.627a5 5 0 0 0 4.625-4.202c.764-4.813 1.329-9.16 1.726-13.082.038-.39.294-.723.663-.862l1.859-.699a2.245 2.245 0 0 0 1.321-2.868z" fill="#fff"/>
  <path d="M79.05 53.27a32.4 32.4 0 0 0 9.405 7.56l4.715 2.515c.843.451 1.795.691 2.752.627a5 5 0 0 0 4.624-4.202c.764-4.813 1.329-9.16 1.726-13.082.039-.39.294-.723.663-.862l1.86-.699a2.244 2.244 0 0 0 1.32-2.868l-2.636-7.253a7.2 7.2 0 0 1-.433-2.453c-.052-20.727-6.578-22.262-6.578-22.262l-28.065 9.386" stroke="#000" stroke-width=".635" stroke-miterlimit="10" stroke-linecap="round"/>
  <path d="M81.391 35.735c-.036-2.566 0-11.099 1.945-17.05a2.9 2.9 0 0 1 2.5-1.975 21 21 0 0 1 5.687.26c3.046.57 7.147 1.143 10.044.545a2.217 2.217 0 0 0 1.465-3.302c-1.525-2.582-4.976-6.959-12.09-10.325-8.73-4.13-21.124-5.855-30.58 1.976-3.913 3.242-6.262 7.988-6.536 13.062-.203 3.763-.24 8.558.503 12.07 1.308 6.176 5.26 11.257 5.443 15 .044.897.56 1.71 1.34 2.15.352.2.772.375 1.27.49a2.326 2.326 0 0 0 2.693-1.439c.528-1.382 1.194-3.641 1.343-6.533a9 9 0 0 1 1.393-4.354l2.45-3.85a2.17 2.17 0 0 1 3.431-.302c.836.913 1.669 2.373 2.053 4.694.137.823.906 1.38 1.731 1.266.941-.129 2.151-.415 3.175-1.057.462-.289.743-.79.735-1.334z" fill="#000"/>
  <path d="M64.445 38.868c1.743 4.026 5.2 5.991 7.72 4.387 2.52-1.607 3.154-6.17 1.41-10.196s-5.2-5.992-7.72-4.387c-2.52 1.601-3.154 6.164-1.41 10.193v.005z" fill="#fff"/>
  <path d="M74.38 35.716a12.2 12.2 0 0 0-.802-2.657c-1.744-4.026-5.2-5.992-7.72-4.387-2.52 1.601-3.155 6.164-1.41 10.193v.005c1.743 4.026 5.199 5.992 7.719 4.388" stroke="#000" stroke-width=".635" stroke-miterlimit="10" stroke-linecap="round"/>
  <path d="M70.517 40.168c-4.916-3.384-5.39-7.715-3.312-8.378 1.496-.474 2.928 1.254 3.51 2.076.122.173 0 .436-.226.503-.387.109-.857.374-.908.955-.08 1.008 1.042 1.509 1.042 1.509" stroke="#000" stroke-width=".635" stroke-miterlimit="10" stroke-linecap="round"/>
  <path d="M83.842 86.47c-1.269 2.092-3.208 3.789-4.361 4.689-.485.38-1.184.25-1.512-.26q-.016-.023-.028-.044c-10.258-17.707-22.071-28.873-24.762-31.3a.93.93 0 0 1-.18-1.16l4.439-7.607a.706.706 0 0 1 1.026-.212c.455.335.648.918.485 1.46-.211.71.024 1.475.589 1.955C74.268 66.47 81.936 80.285 83.93 84.203c.366.72.333 1.578-.088 2.267" fill="#0564FF"/>
  <path d="M78.356 74.927c2.445 3.582 4.122 6.528 5.091 8.352" stroke="#000" stroke-width=".635" stroke-miterlimit="10" stroke-linecap="round"/>
  <path d="M77.848 177.393c-.483 1.341 0 2.729 0 2.729H4.969c-1.181-.794-1.697-1.934-1.9-2.971-.243-1.244.012-2.528.626-3.635 1.171-2.099 2.226-4.506 3.085-6.677a46.6 46.6 0 0 0 2.855-11.019c3.673-27.578 8.948-46.165 12.804-57.047a62.3 62.3 0 0 1 12.28-20.683C43.342 68.44 53.7 58.275 53.7 58.275c19.62 13.722 25.197 30.14 25.283 30.395q.002.001.002.003c-6.12 10.662-5.267 39.925-5.267 39.925s.764 1.669 1.571 4.011c.676 1.96 1.382 4.392 1.7 6.713.699 5.095-4.932 10.189-5.67 14.316-.735 4.129 1.757 4.666 2.613 7.562.266.893-.139 2.19-.825 3.557-.188 4.787 1.958 7.423 3.722 8.615 1.983 1.339 1.501 2.68 1.019 4.021" fill="#0564FF"/>
  <path d="M76.943 141.451c-.73 4.37-4.988 8.636-5.623 12.187-.735 4.13 1.757 4.666 2.613 7.563.266.892-.14 2.19-.825 3.557-.189 4.787 1.957 7.423 3.721 8.615 1.984 1.338 1.502 2.68 1.02 4.021a3.7 3.7 0 0 0-.194.885M52.932 59.036l.015-.016a1.26 1.26 0 0 1 1.628-.123c19.063 13.701 24.41 29.778 24.41 29.778" stroke="#000" stroke-width=".635" stroke-miterlimit="10" stroke-linecap="round"/>
  <path d="M73.107 164.758c-1.535 3.061-4.483 6.469-4.483 6.469M63.966 119.2S52.875 133.18 16.8 166.095m40.582-44.102c-.271.181-21.011 9.198-21.011 9.198M21.851 144.9s-6.616 4.463-9.92 8.747m26.692-29.219s6.673-2.254 15.961-2.435m-.884.003s-6.601-4.238-15.077-6.402" stroke="#000" stroke-width=".635" stroke-miterlimit="10" stroke-linecap="round"/>
  <path d="M372.977 72.53c1.63 2.213 2.822 4.849 5.04 6.469 3.255 2.375 7.689 1.903 11.656 2.613.985.175 1.965.436 2.85.902 2.141 1.133 3.513 3.42 3.949 5.804.436 2.383.028 4.849-.707 7.157-.91 2.864-2.391 5.639-4.741 7.509s-5.687 2.677-8.452 1.504c-3.67-1.558-5.236-5.822-7.949-8.744-1.54-1.659-3.49-2.902-5.561-3.815-2.554-1.127-5.422-1.85-7.359-3.859-1.991-2.068-2.577-5.06-3.658-7.72-.951-2.342-2.336-4.508-3.035-6.938s-.56-5.326 1.22-7.122c1.823-1.841 4.384-1.526 6.605-.724 2.512.905 4.862 1.93 6.951 3.629a18.2 18.2 0 0 1 3.186 3.335z" fill="#000"/>
  <path d="M112.655 180.272h333.012m-444.761 0h78.676" stroke="#000" stroke-width=".635" stroke-miterlimit="10" stroke-linecap="round"/>
  <path d="M362.753 180.246h-22.136l-15.752-27.764-2.334-35.943 6.151-21.751 3.885-13.727 19.6-13.694 5.136 6.147 4.206 9.492-.064 2.837-1.259 55.826z" fill="#fff"/>
  <path d="M347.591 179.412s8.795-4.916 9.396-18.85" stroke="#000" stroke-width=".635" stroke-miterlimit="10" stroke-linecap="round"/>
  <path d="m361.516 83.02-.064 2.837c-4.627 16.095-9.557 27.336-18.803 27.282-6.995-.041-11.36-9.268-13.96-18.336l3.885-13.728 19.6-13.693 5.135 6.146z" fill="#fff"/>
  <path d="m361.516 83.02-.064 2.837c-4.627 16.095-9.557 27.336-18.803 27.282-6.995-.041-11.36-9.268-13.96-18.336l3.885-13.728 19.6-13.693 5.135 6.146z" stroke="#000" stroke-width=".635" stroke-miterlimit="10" stroke-linecap="round"/>
  <path d="M360.632 62.64a1.37 1.37 0 0 1 1.369-.224c1.151.45 3.072 1.646 2.017 4.452-.714 1.904-1.532 2.327-1.947 2.412a.87.87 0 0 0-.482.268c-.604.686-2.404 2.342-3.895-.348s1.596-5.466 2.94-6.562z" fill="#0564FF"/>
  <path d="M264.615 133.396h6.423c.794 0 1.563-.309 2.122-.874.694-.702 1.79-1.519 2.907-1.22.405.108.841.016 1.197-.206 2.296-1.445 9.75-6.327 13.382-11.066 4.325-5.638 3.211-5.181 6.131-5.968 4.784-1.287 4.39-4.194 6.105-5.442 1.062-.774 2.868.58 3.221-1.772.354-2.353 1.976-6.155 7.052-6.155l1.633 32.425s-9.678 13.534-42.685 22.148c-1.695.441-3.521-.129-4.591-1.514a6.7 6.7 0 0 1-.877-1.527z" fill="#CCDFFF"/>
  <path d="M264.615 133.396h6.423c.794 0 1.563-.309 2.122-.874.694-.702 1.79-1.519 2.907-1.22.405.108.841.016 1.197-.206 2.296-1.445 9.75-6.327 13.382-11.066 4.325-5.638 3.211-5.181 6.131-5.968 4.784-1.287 4.39-4.194 6.105-5.442 1.062-.774 2.868.58 3.221-1.772.354-2.353 1.976-6.155 7.052-6.155l1.633 32.425s-9.678 13.534-42.685 22.148c-1.695.441-3.521-.129-4.591-1.514a6.7 6.7 0 0 1-.877-1.527z" stroke="#000" stroke-width=".635" stroke-miterlimit="10" stroke-linecap="round"/>
  <path d="m201.501 115.454.25-.096a3.25 3.25 0 0 1 2.77.22l.753.428a96 96 0 0 0 21.927 8.919l13.58 3.655c4.805 1.292 9.732 2.056 14.697 2.365 3.201.199 6.951.808 9.136 2.453 0 0 8.336 8.349 6.131 19.716a.884.884 0 0 1-1.055.692l-15.437-3.397a119 119 0 0 1-22.68-7.442l-24.047-10.668a11.09 11.09 0 0 1-6.593-10.136v-4.076l.568-2.631z" fill="#fff"/>
  <path d="m201.501 115.454.25-.096a3.25 3.25 0 0 1 2.77.22l.753.428a96 96 0 0 0 21.927 8.919l13.58 3.655c4.805 1.292 9.732 2.056 14.697 2.365 3.201.199 6.951.808 9.136 2.453 0 0 8.336 8.349 6.131 19.716a.884.884 0 0 1-1.055.692l-15.437-3.397a119 119 0 0 1-22.68-7.442l-24.047-10.668a11.09 11.09 0 0 1-6.593-10.136v-4.076l.568-2.631z" stroke="#000" stroke-width=".635" stroke-miterlimit="10" stroke-linecap="round"/>
  <path d="M340.628 180.273h-19.794c-17.08-53.322-9.608-82.902-6.626-91.313a5.04 5.04 0 0 1 3.353-3.157c4.388-1.254 7.867-2.662 10.462-3.903l.026-.013.054-.025a2.72 2.72 0 0 1 3.58 1.17l.758 1.427-8.107 34.266 2.278 34.282z" fill="#CCDFFF"/>
  <path d="M340.628 180.273h-19.794c-17.08-53.322-9.608-82.902-6.626-91.313a5.04 5.04 0 0 1 3.353-3.157c4.388-1.254 7.867-2.662 10.462-3.903l.026-.013.054-.025a2.72 2.72 0 0 1 3.58 1.17l.758 1.427-8.107 34.266 2.278 34.282z" stroke="#000" stroke-width=".635" stroke-miterlimit="10" stroke-linecap="round"/>
  <path d="M342.133 180.138h-2.172c-11.677-11.045-18.339-27.78-20.591-34.215a17.4 17.4 0 0 1-.975-5.2c-.449-14.568 1.483-28.027 3.733-38.398a1.62 1.62 0 0 1 .804-1.076l3.379-1.852a.627.627 0 0 0 .098-1.031l-2.241-1.855a1.13 1.13 0 0 1-.377-1.158c2.205-8.463 4.238-13.588 4.238-13.588l.026-.013a2.715 2.715 0 0 1 3.634 1.146l.758 1.426 1.837 3.461a7.84 7.84 0 0 1 .797 5.004c-5.92 34.096-7.607 47.79-6.118 56.356.975 5.62 6.1 14.121 8.769 19.365 2.67 5.241 4.401 11.63 4.401 11.63z" fill="#0564FF"/>
  <path d="M342.133 180.138h-2.172c-11.677-11.045-18.339-27.78-20.591-34.215a17.4 17.4 0 0 1-.975-5.2c-.449-14.568 1.483-28.027 3.733-38.398a1.62 1.62 0 0 1 .804-1.076l3.379-1.852a.627.627 0 0 0 .098-1.031l-2.241-1.855a1.13 1.13 0 0 1-.377-1.158c2.205-8.463 4.238-13.588 4.238-13.588l.026-.013a2.715 2.715 0 0 1 3.634 1.146l.758 1.426 1.837 3.461a7.84 7.84 0 0 1 .797 5.004c-5.92 34.096-7.607 47.79-6.118 56.356.975 5.62 6.1 14.121 8.769 19.365 2.67 5.241 4.401 11.63 4.401 11.63z" stroke="#0564FF" stroke-width=".635" stroke-miterlimit="10" stroke-linecap="round"/>
  <path d="M318.37 76.651a33.84 33.84 0 0 1 14.382 15.172l2.768 5.809a1.993 1.993 0 0 0 3.188.57l12.073-11.744a10.28 10.28 0 0 0 3.103-7.712l-.936-27.534c-.191-5.636-5.891-9.394-11.145-7.349a10.23 10.23 0 0 0-4.71 3.727l-19.051 27.68a.955.955 0 0 0 .33 1.38z" fill="#fff"/>
  <path d="m334.906 96.344-2.156-4.524a33.84 33.84 0 0 0-14.382-15.171.954.954 0 0 1-.331-1.38l19.051-27.679a10.2 10.2 0 0 1 4.71-3.727c5.254-2.045 10.954 1.713 11.145 7.349l.586 17.227c.013.392.157.766.407 1.065" stroke="#000" stroke-width=".635" stroke-miterlimit="10" stroke-linecap="round"/>
  <path d="m333.5 34.89-10.15-5.365a2.93 2.93 0 0 0-3.007.144c-2.286 1.532-6.327 5.672-8.427 16.41a78 78 0 0 0-.601 3.49 4.5 4.5 0 0 1-.508 1.503c-.988 1.772-2.257 4.06-3.183 5.726a2.935 2.935 0 0 0 .789 3.76l1.437 1.095a.86.86 0 0 1 .338.714c-.137 3.998-.088 7.611.015 10.436a6.093 6.093 0 0 0 8.871 5.192 43.6 43.6 0 0 0 21.617-25.494 14.816 14.816 0 0 0-7.186-17.617z" fill="#fff"/>
  <path d="m333.5 34.89-10.15-5.365a2.93 2.93 0 0 0-3.007.144c-2.286 1.532-6.327 5.672-8.427 16.41a78 78 0 0 0-.601 3.49 4.5 4.5 0 0 1-.508 1.503c-.988 1.772-2.257 4.06-3.183 5.726a2.935 2.935 0 0 0 .789 3.76l1.437 1.095a.86.86 0 0 1 .338.714c-.137 3.998-.088 7.611.015 10.436a6.093 6.093 0 0 0 8.871 5.192 43.6 43.6 0 0 0 9.92-6.987" stroke="#000" stroke-width=".635" stroke-miterlimit="10" stroke-linecap="round"/>
  <path d="M313.025 65.473c1.372-.204 4.191-.79 6.822-2.362a.503.503 0 0 1 .74.577c-.364 1.171-1.197 3.013-3.09 4.84-1.292 1.245-3.405 1.067-4.418-.416-.287-.418-.537-.947-.715-1.607a.823.823 0 0 1 .663-1.034z" fill="#000"/>
  <path d="M313.211 46.772s3.407-4.743 8.292 1.3m-5.702 2.019s1.556-.735 2.621.47" stroke="#000" stroke-width=".635" stroke-miterlimit="10" stroke-linecap="round"/>
  <path d="M336.051 59.129c-.108.08-.252-.031-.201-.155.642-1.56 2.249-6.866-2.246-13.129-7.568-10.544-19.224-6.933-17.803-15.362 1.555-9.232 28.063-16.51 44.127-2.358 10.789 9.508 5.569 26.957 2.484 33.702a2.15 2.15 0 0 0-.196.89c-.005 1.147-.354 4.356-3.83 6.91-.248.18-.447.417-.596.683-.681 1.194-2.907 4.37-6.173 1.671-3.959-3.27-2.605-11.16-4.622-14.555l-4.343-3.214-6.596 4.914z" fill="#000"/>
  <path d="M326.182 38.06s10.439 7.545 6.492 24.473m16.139-4.91s-6.513 18.535.877 21.403c5.875 2.28 8.509-17.366 8.509-17.366" stroke="#000" stroke-width=".635" stroke-miterlimit="10" stroke-linecap="round"/>
  <path d="M345.421 61.537c-2.004 3.903-5.584 5.636-7.994 3.87-2.409-1.77-2.739-6.366-.735-10.269 2.004-3.902 5.585-5.636 7.994-3.869s2.739 6.36.735 10.263z" fill="#fff"/>
  <path d="M336.694 55.138c2.004-3.902 5.584-5.636 7.993-3.869s2.739 6.36.735 10.263v.005c-2.004 3.903-5.584 5.636-7.993 3.87-1.06-.78-1.718-2.105-1.953-3.681" stroke="#000" stroke-width=".635" stroke-miterlimit="10" stroke-linecap="round"/>
  <path d="M339.275 62.429c5.13-3.052 5.889-7.341 3.856-8.14-1.46-.573-3.005 1.057-3.639 1.838-.132.165-.026.434.193.516.379.134.831.428.844 1.014.012 1.011-1.141 1.437-1.141 1.437" stroke="#000" stroke-width=".635" stroke-miterlimit="10" stroke-linecap="round"/>
  <path d="M408.024 174.037v6.226h-45.262l-2.837-67.89 6.343-30.209 1.446-.585s1.311-1.194 2.438-.648c1.125.545.472 1.525 1.741 1.525s2.933-.782 4.23 0c1.297.779 3.358 1.7 7.501 1.937 2.739.155 7.854 2.071 11.008 3.35a5.49 5.49 0 0 1 3.309 3.96l3.622 17.237a142.5 142.5 0 0 1 2.455 42.211c-.454 4.975-.804 10.02-.843 13.992q.14.09.278.183c2.879 1.95 4.571 5.234 4.571 8.711" fill="#CCDFFF"/>
  <path d="M408.024 174.037v6.226h-45.262l-2.837-67.89 6.343-30.209 1.446-.585s1.311-1.194 2.438-.648c1.125.545.472 1.525 1.741 1.525s2.933-.782 4.23 0c1.297.779 3.358 1.7 7.501 1.937 2.739.155 7.854 2.071 11.008 3.35a5.49 5.49 0 0 1 3.309 3.96l3.622 17.237a142.5 142.5 0 0 1 2.455 42.211c-.454 4.975-.804 10.02-.843 13.992q.14.09.278.183c2.879 1.95 4.571 5.234 4.571 8.711Z" stroke="#000" stroke-width=".635" stroke-miterlimit="10" stroke-linecap="round"/>
  <path d="M403.175 165.142c-1.901-1.243-3.998-2.127-6.319-3.149-4.496-1.978-10.591-7.297-10.591-7.297" stroke="#000" stroke-width=".635" stroke-miterlimit="10" stroke-linecap="round"/>
  <path d="M366.878 105.619c.281.065.483.31.493.599.449 14.663-.183 37.302-.261 43.17-.087 6.698-1.498 16.657-2.027 21.947-.529 5.288.825 8.785.825 8.785h-6.884s-2.966-7.106-5.133-15.537c-2.164-8.432-1.71-23.343-1.71-23.343l4.72-68.35 10.818 8.546s-.4 2.785-.655 7.09c-.284 4.8-.034 10.405.049 12.012a.83.83 0 0 1-.346.717l-3.946 2.814a.36.36 0 0 0 .126.643z" fill="#0564FF"/>
  <path d="M366.878 105.619c.281.065.483.31.493.599.449 14.663-.183 37.302-.261 43.17-.087 6.698-1.498 16.657-2.027 21.947-.529 5.288.825 8.785.825 8.785h-6.884s-2.966-7.106-5.133-15.537c-2.164-8.432-1.71-23.343-1.71-23.343l4.72-68.35 10.818 8.546s-.4 2.785-.655 7.09c-.284 4.8-.034 10.405.049 12.012a.83.83 0 0 1-.346.717l-3.946 2.814a.36.36 0 0 0 .126.643z" stroke="#0564FF" stroke-width=".635" stroke-miterlimit="10" stroke-linecap="round"/>
  <path d="M414.476 114.542c.055 1.238-.069 2.742-.358 4.648" stroke="#000" stroke-width=".635" stroke-miterlimit="10" stroke-linecap="round"/>
  <path d="m435.527 161.237-22.37 6.583s-1.506.593-1.151-2.783a8.4 8.4 0 0 0-1.942.074 2.53 2.53 0 0 1-2.27-.833c-.982-1.122-2.414-3.118-3.337-6.017-1.519-4.767-.991-5.226-3.531-5.827-2.543-.598-4.625-2.577-6.498-5.649-1.87-3.069-7.087-9.239-12.53-19.283a134 134 0 0 1-6.665-14.263c-1.498-3.776-2.081-7.867-1.586-11.901.232-1.896.709-3.882 1.594-5.662 3.477-6.987 12.014-11.723 20.041-7.637 0 0 9.559 3.09 10.408 14.965.753 1.476 1.898 3.039 3.631 4.251 3.392 2.37 5.004 3.74 5.156 7.289 1.605.743 3.885 2.19 4.764 4.648 1.471 4.127.981 5.747 2.6 9.278 1.298 2.832 11.36 21.581 15.298 28.906a2.694 2.694 0 0 1-1.612 3.861" fill="#CCDFFF"/>
  <path d="M395.284 88.038s9.559 3.09 10.407 14.965c.754 1.476 1.899 3.039 3.632 4.251 3.392 2.37 5.004 3.74 5.156 7.289 1.605.743 3.885 2.19 4.764 4.648 1.47 4.127.98 5.747 2.6 9.278 1.298 2.832 11.359 21.581 15.298 28.906a2.694 2.694 0 0 1-1.612 3.861l-22.37 6.583s-1.507.593-1.151-2.783a8.4 8.4 0 0 0-1.942.074 2.53 2.53 0 0 1-2.27-.833c-.983-1.122-2.414-3.118-3.337-6.017-1.52-4.767-.991-5.226-3.531-5.827-2.544-.598-4.625-2.577-6.498-5.649-1.87-3.069-7.088-9.239-12.53-19.282" stroke="#000" stroke-width=".635" stroke-miterlimit="10" stroke-linecap="round"/>
  <path d="M412.47 162.493a20 20 0 0 0-.464 2.541m-6.254-60.38q-.002-.851-.062-1.648m-9.822-14.739s-23.345 12.146-10.779 41.47" stroke="#000" stroke-width=".635" stroke-miterlimit="10" stroke-linecap="round"/>
  <path d="M412.767 167.89s-1.075-5.597 7.153-11.395 17.405 1.32 17.405 1.32l1.416 3.601c1.777 4.524.921 9.665-2.254 13.346-7.829 9.076-27.387 22.571-71.994 14.862 0 0-8.081-1.509-6.657-9.748 0 0 8.816-1.086 18.909-2.809 13.626-2.326 25.87-7.977 36.025-9.177z" fill="#fff"/>
  <path d="M412.767 167.89s-1.075-5.597 7.153-11.395 17.405 1.32 17.405 1.32l1.416 3.601c1.777 4.524.921 9.665-2.254 13.346-7.829 9.076-27.387 22.571-71.994 14.862 0 0-8.081-1.509-6.657-9.748 0 0 8.816-1.086 18.909-2.809 13.626-2.326 25.87-7.977 36.025-9.177z" stroke="#000" stroke-width=".635" stroke-miterlimit="10" stroke-linecap="round"/>
  <path d="M364.488 189.515s-8.068.712-11.672 0c-1.284-.253-1.965-.717-2.27-1.365l-9.105 4.646c-.508.26-1.114.25-1.614-.031a1.7 1.7 0 0 1-.88-1.499c0-.508.222-1.019.679-1.364l6.471-4.911-16.435 6.889a1.287 1.287 0 0 1-1.788-1.189c0-.397.181-.795.539-1.05l7.021-5.022q.388-.279.795-.526l-2.19.4a7.8 7.8 0 0 0-3.248 1.408l-5.682 4.217a1.45 1.45 0 0 1-1.431.168 1.446 1.446 0 0 1-.544-2.262l.441-.529-1.607.849a1.18 1.18 0 0 1-1.414-.245 1.17 1.17 0 0 1-.307-.792c0-.328.134-.655.403-.888l5.679-4.939a11.6 11.6 0 0 1 3.379-2.048l5.388-2.112a7.4 7.4 0 0 1 3.828-.431l18.906 2.878s12.36 1.264 6.658 9.748" fill="#fff"/>
  <path d="M364.488 189.515s-8.068.712-11.672 0c-1.284-.253-1.965-.717-2.27-1.365l-9.105 4.646c-.508.26-1.114.25-1.614-.031a1.7 1.7 0 0 1-.88-1.499c0-.508.222-1.019.679-1.364l6.471-4.911-16.435 6.889a1.287 1.287 0 0 1-1.788-1.189c0-.397.181-.795.539-1.05l7.021-5.022q.388-.279.795-.526l-2.19.4a7.8 7.8 0 0 0-3.248 1.408l-5.682 4.217a1.45 1.45 0 0 1-1.431.168 1.446 1.446 0 0 1-.544-2.262l.441-.529-1.607.849a1.18 1.18 0 0 1-1.414-.245 1.17 1.17 0 0 1-.307-.792c0-.328.134-.655.403-.888l5.679-4.939a11.6 11.6 0 0 1 3.379-2.048l5.388-2.112a7.4 7.4 0 0 1 3.828-.431l17.82 2.713a7.8 7.8 0 0 0 2.177.026l1.202-.155m-11.952 3.945-2.074 1.573m6.187 2.271-1.738.887" stroke="#000" stroke-width=".635" stroke-miterlimit="10" stroke-linecap="round"/>
  <path d="M336.228 184.089a13 13 0 0 1 2.858-1.305l4.552-1.45m-20.063 6.163 3.812-4.555a4.7 4.7 0 0 1 2.404-1.527l10.395-2.765" stroke="#000" stroke-width=".635" stroke-miterlimit="10" stroke-linecap="round"/>
  <path d="m165.625 218.823 56.949-23.451c.598-.247.611-1.104.021-1.24l-33.106-7.622-44.271 24.906z" fill="#F8FF6E"/>
  <path d="m165.625 218.823 56.949-23.451c.598-.247.611-1.104.021-1.24l-33.106-7.622-44.271 24.906z" stroke="#000" stroke-width=".635" stroke-miterlimit="10" stroke-linecap="round"/>
  <path d="M115.478 192.269a1.55 1.55 0 0 1-1.715-.954l-1.932-4.911q.003.217 0 .438l-.052 3.425a2.06 2.06 0 0 1-1.968 2.028h-.095a2.06 2.06 0 0 1-2.043-1.801l-.452-3.557a10.3 10.3 0 0 0-1.287-3.822q.105 1.698.106 3.405v4.351a1.998 1.998 0 0 1-3.314 1.504 2 2 0 0 1-.663-1.244l-.637-4.836a29 29 0 0 0-.779-3.866 14.7 14.7 0 0 0-3.39 3.1 10.2 10.2 0 0 1 1.169 3.882q.009.1.01.201c0 .851-.513 1.628-1.313 1.955a2.11 2.11 0 0 1-2.3-.464l-5.94-5.961s-.98-1.442.232-3.722c1.21-2.277 5.558-6.324 8.79-6.953a119 119 0 0 0 5.259-1.177 2.89 2.89 0 0 1 2.884.931l.518.607a.98.98 0 0 0 .79.35l.423-.015a2.5 2.5 0 0 1 2.398 1.571l.496 1.246a3.5 3.5 0 0 0 1 1.382l2.433 2.038a5.53 5.53 0 0 1 1.944 3.58l.684 5.579a1.545 1.545 0 0 1-1.256 1.707z" fill="#fff"/>
  <path d="M115.478 192.269a1.55 1.55 0 0 1-1.715-.954l-1.932-4.911q.003.217 0 .438l-.052 3.425a2.06 2.06 0 0 1-1.968 2.028h-.095a2.06 2.06 0 0 1-2.043-1.801l-.452-3.557a10.3 10.3 0 0 0-1.287-3.822q.105 1.698.106 3.405v4.351a1.998 1.998 0 0 1-3.314 1.504 2 2 0 0 1-.663-1.244l-.637-4.836a29 29 0 0 0-.779-3.866 14.7 14.7 0 0 0-3.39 3.1 10.2 10.2 0 0 1 1.169 3.882q.009.1.01.201c0 .851-.513 1.628-1.313 1.955a2.11 2.11 0 0 1-2.3-.464l-5.94-5.961s-.98-1.442.232-3.722c1.21-2.277 5.558-6.324 8.79-6.953a119 119 0 0 0 5.259-1.177 2.89 2.89 0 0 1 2.884.931l.518.607a.98.98 0 0 0 .79.35l.423-.015a2.5 2.5 0 0 1 2.398 1.571l.496 1.246a3.5 3.5 0 0 0 1 1.382l2.433 2.038a5.53 5.53 0 0 1 1.944 3.58l.684 5.579a1.545 1.545 0 0 1-1.256 1.707z" stroke="#000" stroke-width=".635" stroke-miterlimit="10" stroke-linecap="round"/>
  <path d="m109.008 176.523 1.117 2.384a18 18 0 0 1 1.705 7.498m-12.912-8.959.915 2.458q.469 1.247.813 2.528m4.73-6.347.482 5.953q.044.538.075 1.076m-9.775-1.986-.057.129a2.95 2.95 0 0 0 .328 2.964c.309.415.588.853.828 1.31" stroke="#000" stroke-width=".635" stroke-miterlimit="10" stroke-linecap="round"/>
  <path d="m174.836 119.142 11.736-1.055s5.692 9.683-2.523 19.128l-6.747-2.288-2.463-15.783z" fill="#fff"/>
  <path d="m174.836 119.142 11.736-1.055s5.692 9.683-2.523 19.128l-6.747-2.288-2.463-15.783z" stroke="#000" stroke-width=".635" stroke-miterlimit="10" stroke-linecap="round"/>
  <path d="m217.31 138.017-1.364 1.266a.747.747 0 0 1-1.048-.028l-.531-.55a2.1 2.1 0 0 1-.65 1.46l-1.499 1.439a2.12 2.12 0 0 1-2.85.073l-.134-.116.039.936q.003.05.002.1a2.533 2.533 0 0 1-2.77 2.523l-1.63-.157-.162.822a2.524 2.524 0 0 1-4.034 1.502l-1.478-1.159a7.8 7.8 0 0 0-2.832-1.408 21.7 21.7 0 0 1-8.087-4.091l-4.237-3.42-.619-3.466.629-11.87 2.512-3.795 9.557-2.685a5.11 5.11 0 0 1 5.592 2.038l2.558 3.761 10.722 11.457a10.2 10.2 0 0 1 2.224 3.719l.291.859a.75.75 0 0 1-.201.79" fill="#fff"/>
  <path d="m186.569 118.078 9.556-2.685a5.105 5.105 0 0 1 5.592 2.038l2.559 3.761 10.722 11.457a10.2 10.2 0 0 1 2.224 3.719l.291.859a.75.75 0 0 1-.201.79l-1.365 1.266a.745.745 0 0 1-1.047-.028l-.531-.55a2.1 2.1 0 0 1-.65 1.46l-1.499 1.439a2.12 2.12 0 0 1-2.85.073l-.134-.116.039.936.002.1a2.534 2.534 0 0 1-2.77 2.523l-1.63-.157-.162.822a2.524 2.524 0 0 1-4.035 1.502l-1.477-1.159a7.8 7.8 0 0 0-2.833-1.408 21.6 21.6 0 0 1-4.258-1.62 21.7 21.7 0 0 1-3.828-2.471l-4.237-3.42m30.32 1.494-5.42-5.592m-4.071 11.85-4.721-4.3m9.079.902-4.48-3.875M101.612 31.414s-4.403-4.478-9.657-.676m6.104 3.378s-1.8-2.076-4.127 0" stroke="#000" stroke-width=".635" stroke-miterlimit="10" stroke-linecap="round"/>
  <path d="M91.396 47.314c1.259.714 3.493 1.715 6.296 1.857a.682.682 0 0 1 .594.936l-1.004 2.497c-.51 1.274-2.107 1.715-3.185.864-1.259-.993-2.716-2.693-3.516-5.522a.557.557 0 0 1 .813-.637z" fill="#000"/>
  <path d="m123.101 140.576-6.363 11.001a4.79 4.79 0 0 1-6.433 1.811c-5.984-3.253-16.905-9.247-21.578-12.205-6.606-4.179-15.234-9.841-32.219-17.524-16.987-7.687-15.341-22.951-15.341-22.951s.283-3.714 1.656-7.134c2.992-7.457 7.255-12.629 7.255-12.629l10.918.87c9.278.621 16.02 4.64 17.996 7.302s4.385 8.767 5.677 11.542c.782 1.679 1.249 3.637 1.496 4.924q.167-.128.3-.237a.54.54 0 0 1 .815.167l.802 1.527c.22.421.652.684 1.124.686.717.008 1.798.062 2.59.297.838.25 1.284 1.086 1.493 1.64.142.38.364.723.663.999 4.788 4.426 13.008 8.106 16.443 9.533a2.9 2.9 0 0 1 1.76 2.174c.139.782.335 1.426.559 1.953 3.101.521 7.266 1.738 10.052 4.578q.174.173.335.353c4.854 5.391 0 11.323 0 11.323" fill="#0564FF"/>
  <path d="M60.998 81.816c9.275.622 16.015 4.638 17.993 7.3v.002m-36.168 4.453c-1.373 3.42-1.656 7.135-1.656 7.135s-1.646 15.264 15.341 22.95c7.834 3.544 13.89 6.658 18.788 9.394" stroke="#000" stroke-width=".635" stroke-miterlimit="10" stroke-linecap="round"/>
  <path d="M49.946 111.804c21.398 3.784 33.178-3.851 36.219-6.219m22.377 18.34s1.767-.013 4.171.394m-46.329-20.125s7.188.498 13.017-.57M55.427 115.89s9.185.885 16.76-.552M53.702 84.469s15.966-.947 23.317 4.96" stroke="#000" stroke-width=".635" stroke-miterlimit="10" stroke-linecap="round"/>
  <path d="m181.258 136.627-14.666 5.615c-19.956 9.605-31.739 10.271-36.557 9.956-5.94 2.404-11.591 3.077-13.977 3.26a5.56 5.56 0 0 1-3.095-.647c-6.601-3.606-5.115-16.415-5.115-16.415l12.861-8.751c3.858-2.608 7.771-1.827 12.672-2.087 4.011-.214 10.639-1.088 12.917-1.401.428-.059.787-.325 1.006-.699.307-.528 1.065-1.183 2.925-.92 2.971.417 9.543-1.62 9.543-1.62 4.754-2.469 14.607-4.981 17.266-5.636a.79.79 0 0 1 .929.482c2.692 7.07 3.577 15.822 3.771 18.099a.75.75 0 0 1-.48.764" fill="#0564FF"/>
  <path d="M111.158 153.416c-4.504-4.731-3.31-15.02-3.31-15.02m38.353-.751c-3.466 7.67-9.974 12.053-16.167 14.552m30.156-28.03s2.159 3.08 3.482 8.169c1.349 5.189 2.507 8.287 2.507 8.287" stroke="#000" stroke-width=".635" stroke-miterlimit="10" stroke-linecap="round"/>
  <path d="m183.303 135.593-.988.459a1.43 1.43 0 0 0-.813 1.107 1.48 1.48 0 0 0 .436 1.256l1.114 1.08c.408.395.955.617 1.522.617.704 0 1.365-.346 1.764-.926a2.44 2.44 0 0 0-3.038-3.596z" fill="#fff"/>
  <path d="m183.303 135.593-.988.459a1.43 1.43 0 0 0-.813 1.107 1.48 1.48 0 0 0 .436 1.256l1.114 1.08c.408.395.955.617 1.522.617.704 0 1.365-.346 1.764-.926a2.44 2.44 0 0 0-3.038-3.596z" stroke="#000" stroke-width=".635" stroke-miterlimit="10" stroke-linecap="round"/>
  <path d="M196.736 143.951c-.99.263-2.362.905-3.293 2.463l.126.265a4.17 4.17 0 0 0 3.08 2.322 2.32 2.32 0 0 0 1.973-.606l.379-.359a2.412 2.412 0 0 0-.237-3.696 2.4 2.4 0 0 0-2.025-.389z" fill="#fff"/>
  <path d="M196.736 143.951c-.99.263-2.362.905-3.293 2.463l.126.265a4.17 4.17 0 0 0 3.08 2.322 2.32 2.32 0 0 0 1.973-.606l.379-.359a2.412 2.412 0 0 0-.237-3.696 2.4 2.4 0 0 0-2.025-.389z" stroke="#000" stroke-width=".635" stroke-miterlimit="10" stroke-linecap="round"/>
  <path d="m194.66 138.357.529-.903a1.838 1.838 0 0 1 3.338 1.488l-1.501 4.715a4.26 4.26 0 0 1-2.175 2.53 3.56 3.56 0 0 1-2.517.243 1.49 1.49 0 0 1-1.016-.97l-.359-1.096 1.295-3.699 2.401-2.308z" fill="#fff"/>
  <path d="m194.66 138.357.529-.903a1.838 1.838 0 0 1 3.338 1.488l-1.501 4.715a4.26 4.26 0 0 1-2.175 2.53 3.56 3.56 0 0 1-2.517.243 1.49 1.49 0 0 1-1.016-.97l-.359-1.096 1.295-3.699 2.401-2.308z" stroke="#000" stroke-width=".635" stroke-miterlimit="10" stroke-linecap="round"/>
  <path d="m191.189 135.547-2.84 2.981a4.17 4.17 0 0 0-1.129 2.448 2.7 2.7 0 0 0 1.207 2.533l.872.567a1.617 1.617 0 0 0 2.29-.554l3.072-5.393a2.18 2.18 0 0 0-.668-2.882 2.18 2.18 0 0 0-2.804.3" fill="#fff"/>
  <path d="m191.189 135.547-2.84 2.981a4.17 4.17 0 0 0-1.129 2.448 2.7 2.7 0 0 0 1.207 2.533l.872.567a1.617 1.617 0 0 0 2.29-.554l3.072-5.393a2.18 2.18 0 0 0-.668-2.882 2.18 2.18 0 0 0-2.804.3Z" stroke="#000" stroke-width=".635" stroke-miterlimit="10" stroke-linecap="round"/>
  <path d="M204.3 117.889c0 1.73-1.31 3.332-3.224 3.474l-1.027.075a8.9 8.9 0 0 1-.531 3.24l-.258.714a2.12 2.12 0 0 1-2.001 1.395 2.12 2.12 0 0 1-2.105-1.911l-.433-4.341a2.955 2.955 0 0 1 1.779-3.015l4.999-2.138a1.853 1.853 0 0 1 2.334.779c.32.557.467 1.15.467 1.728" fill="#fff"/>
  <path d="M203.547 120.055a3.44 3.44 0 0 1-2.471 1.308l-1.027.075a8.9 8.9 0 0 1-.531 3.239l-.258.715a2.12 2.12 0 0 1-2.001 1.395 2.12 2.12 0 0 1-2.105-1.911l-.433-4.341a2.955 2.955 0 0 1 1.779-3.015l4.999-2.138s.931-.411 1.741-.289" stroke="#000" stroke-width=".635" stroke-miterlimit="10" stroke-linecap="round"/>
  <path d="M200.05 121.439a9 9 0 0 0-.323-2.159" stroke="#000" stroke-width=".635" stroke-miterlimit="10" stroke-linecap="round"/>
  <path d="m209.878 187.228-34.137 31.308a3.84 3.84 0 0 1-2.757 1.008l-69.304-2.803c-.614-.026-.784-.854-.232-1.12l58.635-28.15a7.5 7.5 0 0 1 3.204-.738l44.299-.248c.393 0 .581.48.292.743" fill="#0564FF"/>
  <path d="m206.462 183.056-34.137 31.308a3.84 3.84 0 0 1-2.757 1.008l-69.304-2.803c-.614-.026-.784-.854-.232-1.12l58.635-28.15a7.5 7.5 0 0 1 3.204-.738l44.3-.248c.392 0 .58.48.291.743" fill="#F8FF6E"/>
  <path d="m206.462 183.056-34.137 31.308a3.84 3.84 0 0 1-2.757 1.008l-69.304-2.803c-.614-.026-.784-.854-.232-1.12l58.635-28.15a7.5 7.5 0 0 1 3.204-.738l44.3-.248c.392 0 .58.48.291.743Zm-9.88 2.226h-35.605m30.557 4.453h-38.383m33.332 4.458h-41.765m36.711 4.449h-44.81m39.762 4.453h-50.709m45.656 4.453h-50.709M390.316 86.111s4.344 1.336 5.896 2.34" stroke="#000" stroke-width=".635" stroke-miterlimit="10" stroke-linecap="round"/>
  <path d="M267.243 161.757h-9.75v17.712h9.75a6.937 6.937 0 0 0 6.938-6.938v-3.833a6.94 6.94 0 0 0-6.938-6.941m2.979 10.049a4.34 4.34 0 0 1-4.341 4.341h-4.429v-11.071h4.429a4.34 4.34 0 0 1 4.341 4.344z" fill="#fff"/>
  <path d="M267.243 161.757h-9.75v17.712h9.75a6.937 6.937 0 0 0 6.938-6.938v-3.833a6.94 6.94 0 0 0-6.938-6.941Zm2.979 10.049a4.34 4.34 0 0 1-4.341 4.341h-4.429v-11.071h4.429a4.34 4.34 0 0 1 4.341 4.344z" stroke="#000" stroke-width=".635" stroke-miterlimit="10" stroke-linecap="round"/>
  <path d="M264.579 159.534v26.721a2.244 2.244 0 0 1-2.244 2.244h-16.183a2.244 2.244 0 0 1-2.244-2.244v-26.721c0-.973.789-1.76 1.759-1.76h17.15c.972 0 1.759.79 1.759 1.76z" fill="#fff"/>
  <path d="M248.855 173.14c0 4.839-2.215 8.762-4.947 8.762v-17.524c2.732 0 4.947 3.923 4.947 8.762" fill="#CCDFFF"/>
  <path d="M245.786 157.774h16.915c1.037 0 1.877.841 1.877 1.878v26.005a2.844 2.844 0 0 1-2.842 2.842h-14.983a2.845 2.845 0 0 1-2.843-2.842v-26.005c0-1.037.841-1.878 1.878-1.878z" stroke="#000" stroke-width=".635" stroke-miterlimit="10" stroke-linecap="round"/>
  <path d="M248.615 151.072c-.095.928.442 1.854 1.205 2.399.614.438 1.305.668 1.684 1.372.114.211.194.461.124.691-.108.353-.539.518-.903.457-.637-.111-1.305-.72-1.764-1.143a5.9 5.9 0 0 1-1.48-2.169c-.645-1.651-.55-3.542.103-5.19.487-1.23 1.444-2.445 2.765-2.559 2.133-.183 3.523 2.495 5.646 2.776 1.302.173 2.659-.751 2.976-2.022.55-2.195-1.204-3.875-2.894-4.945-3.595-2.277-7.438-3.541-9.285-7.735-1.419-3.222-1.011-7.047.882-9.987 1.78-2.763 5.025-5.043 8.347-3.351 2.223 1.132 3.361 3.797 2.839 6.198-.603 2.781-2.664 5.546-.902 8.339 1.101 1.746 3.288 2.389 5.016 3.516 2.172 1.416 3.733 3.812 3.924 6.396.152 2.054-.751 4.272-2.167 5.755-.529.552-1.217.985-1.978 1.057-1.476.14-2.528-1.055-3.893-1.356-.673-.15-1.39-.204-2.045.013-.655.216-1.238.75-1.359 1.428-.142.779.348 1.564.998 2.015.98.678 3.283.547 3.397 2.063.116 1.535-1.842 1.783-2.925 1.538a5.68 5.68 0 0 1-3.167-1.976c-.893-1.125-.95-2.458-1.478-3.74-.3-.728-.872-1.416-1.646-1.54-.949-.152-1.88.678-2.012 1.633l-.008.072zm12.188-27.24c.199.335.459.655.828.841.869.435 2.05-.096 2.44-.916.389-.82.139-1.79-.353-2.564-.493-.776-1.205-1.416-1.824-2.115-.622-.699-1.168-1.501-1.236-2.391-.046-.627.148-1.261.019-1.88-.215-1.024-1.411-1.788-2.564-1.664-1.329.145-2.216 1.303-2.113 2.456.088.969.697 1.367 1.55 1.833 2.729 1.494 1.919 4.148 3.253 6.4" fill="#CCDFFF"/>
</svg>
