
<svg width="119" height="88" viewBox="0 0 119 88" fill="none" xmlns="http://www.w3.org/2000/svg">
<g opacity="0.96" clip-path="url(#clip0_25829_28096)">
<path d="M72.8967 39.5327C72.8967 39.5327 74.4306 41.5084 75.9714 43.0814C76.1963 43.3115 76.253 43.6558 76.1131 43.946C75.798 44.5986 75.1568 45.7603 74.2392 46.6369C72.8915 47.924 72.44 48.2056 71.9868 48.9904L68.1738 47.8828L72.8967 39.5336V39.5327Z" fill="black"/>
<path d="M68.366 18.667L69.451 25.2311L63.7659 42.7788L72.0202 46.5885L75.5371 27.3073C75.6195 26.8565 75.756 26.4178 75.9371 25.9962C76.2959 25.1573 76.8547 23.3817 76.3809 21.2145C76.3242 20.9552 76.3105 20.6873 76.3483 20.4229L77.3483 13.5805C77.3921 13.2749 77.1809 12.9907 76.8727 12.946L76.5757 12.9039L71.9661 12.9958L71.7962 17.3241C71.7799 17.7749 71.3764 18.1089 70.9318 18.0454C70.7807 18.0239 70.6451 17.9595 70.5369 17.8625C70.4288 17.7672 70.3472 17.6392 70.3069 17.4933L69.1094 13.0542L67.4029 12.8516L68.3678 18.667H68.366Z" fill="white" stroke="black" stroke-width="0.392761" stroke-miterlimit="10" stroke-linecap="round"/>
<path d="M74.658 20.6719C74.658 20.6719 73.2768 20.896 72.9163 22.0895" stroke="black" stroke-width="0.392761" stroke-miterlimit="10" stroke-linecap="round"/>
<path d="M73.6086 18.3066L73.7982 13.4829" stroke="#141415" stroke-width="0.392761" stroke-miterlimit="10" stroke-linecap="round"/>
<path d="M75.602 14.0898L75.0972 18.5796" stroke="#141415" stroke-width="0.392761" stroke-miterlimit="10" stroke-linecap="round"/>
<path d="M70.2616 19.4534C69.8822 19.3074 69.4376 19.1975 68.9183 19.1374C68.6908 19.1116 68.4727 19.0309 68.2848 18.8987L67.0761 18.0444C66.8229 17.8649 66.6263 17.6159 66.5216 17.3231C66.3353 16.8062 65.8718 15.9605 64.8057 15.7733C64.4864 15.7166 64.1593 15.8343 63.9421 16.0773C63.8005 16.2353 63.7833 16.4697 63.9009 16.6474C64.1224 16.9823 64.4649 17.5747 64.6391 18.2633C64.725 18.6042 64.9198 18.9073 65.1851 19.1382C65.8134 19.6869 66.9233 20.8134 67.3834 22.2507C67.3834 22.2507 67.6538 24.5287 69.5165 25.3049C70.4462 25.6921 71.2831 24.9116 71.7681 24.1466C72.8471 22.4439 72.1432 20.1729 70.2608 19.4508L70.2616 19.4534Z" fill="white"/>
<path d="M70.2616 19.4515C69.8822 19.3064 69.4376 19.1965 68.9183 19.1364C68.6908 19.1107 68.4727 19.0299 68.2848 18.8977L67.0761 18.0434C66.8229 17.8639 66.6263 17.6149 66.5216 17.3221C66.3353 16.8053 65.8718 15.9595 64.8057 15.7723C64.4864 15.7157 64.1593 15.8333 63.9421 16.0763C63.8005 16.2343 63.7833 16.4687 63.9009 16.6464C64.1224 16.9813 64.4649 17.5737 64.6391 18.2623C64.725 18.6032 64.9198 18.9063 65.1851 19.1373C65.8134 19.6859 66.9233 20.8124 67.3834 22.2498C67.3834 22.2498 67.6538 24.5277 69.5165 25.3039" stroke="black" stroke-width="0.392761" stroke-miterlimit="10" stroke-linecap="round"/>
<path d="M71.7692 24.1501C72.8473 22.4466 72.1443 20.1764 70.2619 19.4543C69.8824 19.3084 69.4386 19.1984 68.9202 19.1383C68.6927 19.1126 68.4747 19.0319 68.2867 18.9014" stroke="black" stroke-width="0.392761" stroke-miterlimit="10" stroke-linecap="round"/>
<path d="M44.9637 17.8038C45.0865 26.9739 45.2092 36.1439 45.3328 45.3131C46.2161 45.7261 47.0385 46.2542 47.8282 46.8406C50.7399 48.9949 53.2223 51.9185 56.7203 52.7179C57.2782 52.845 57.8551 52.9145 58.3821 53.1352C58.5015 53.185 58.6156 53.2416 58.7264 53.3035C60.4105 54.2497 61.3196 56.549 63.2381 56.8582C63.9497 56.9715 64.6682 56.7766 65.3609 56.5834C66.3704 56.3 67.3798 56.0184 68.3893 55.7368C68.9438 55.5822 69.5121 55.4191 69.9688 55.0705C70.4606 54.6944 70.7756 54.1338 71.0297 53.5696C71.6109 52.2791 71.9465 50.8779 72.01 49.4629C72.0169 49.3186 71.9851 48.9777 71.9851 48.9777C71.9851 48.9777 71.7894 48.6978 71.7001 48.5707C71.4976 48.278 71.2873 47.9903 71.0727 47.7044C70.6435 47.1343 70.1954 46.5805 69.7327 46.0378C68.4073 44.4803 64.9926 43.0223 63.5591 41.5678C62.4484 40.4413 63.269 39.2839 61.7951 38.7078C61.1728 38.4656 60.4294 38.2673 60.1539 37.6594C59.8723 37.0343 60.1848 36.1422 59.6448 35.7198C59.3418 35.4837 58.8972 35.5266 58.5701 35.3231C58.3332 35.1754 58.189 34.9195 58.056 34.6731C54.9074 28.892 51.7588 23.1101 48.6085 17.3281C47.3938 17.4861 46.1792 17.6441 44.9646 17.8021L44.9637 17.8038Z" fill="#141415"/>
<path d="M72.01 49.4638C71.9465 50.8788 71.6117 52.2801 71.0306 53.5706C70.7756 54.1347 70.4606 54.6945 69.9688 55.0715C69.5129 55.4209 68.9438 55.5832 68.3902 55.7378C67.3807 56.0203 66.3704 56.3019 65.3609 56.5852C64.669 56.7784 63.9497 56.9733 63.2381 56.86C61.3196 56.5509 60.4105 54.2515 58.7264 53.3053C58.6156 53.2426 58.5015 53.186 58.3821 53.1362C57.8551 52.9155 57.2782 52.8459 56.7203 52.7189C53.9734 52.0903 51.8523 50.1533 49.6583 48.3064C49.0583 47.8024 48.4531 47.3044 47.8282 46.8416C47.3106 46.4578 46.7809 46.0989 46.2281 45.7821C45.9363 45.6129 45.6376 45.4566 45.3328 45.3133C45.2092 36.144 45.0865 26.974 44.9637 17.8039C46.1783 17.6459 47.393 17.4879 48.6076 17.3291C51.7579 23.1119 54.9065 28.8939 58.0551 34.6741C58.189 34.9214 58.3324 35.1772 58.5693 35.3241C58.8963 35.5276 59.341 35.4846 59.644 35.7208C60.1839 36.1432 59.8715 37.0353 60.153 37.6604C60.4294 38.2691 61.1719 38.4675 61.7951 38.7096C63.269 39.2849 62.4484 40.4423 63.5591 41.5688C64.9935 43.0233 68.4073 44.4821 69.7327 46.0388C70.1954 46.5814 70.6434 47.1361 71.0726 47.7062C71.2872 47.9913 71.4976 48.2798 71.7001 48.5717C71.7894 48.6997 71.986 48.9787 71.986 48.9787C71.986 48.9787 72.0177 49.3196 72.01 49.4638Z" fill="#0061FF"/>
<path d="M51.4323 43.5889C51.4323 43.5889 49.0571 46.4069 49.6571 48.3027C49.0571 47.7987 48.452 47.3007 47.827 46.8379C47.3094 46.4541 46.7798 46.0952 46.227 45.7783L51.4323 43.5889Z" fill="black"/>
<path d="M58.9264 53.2556C58.9264 53.2556 56.5856 50.2126 56.189 45.9023" stroke="black" stroke-width="0.392761" stroke-miterlimit="10" stroke-linecap="round"/>
<path d="M64.3661 37.676C63.9455 38.3638 63.1077 39.5598 62.0261 40.2416C62.0261 40.2416 64.0159 45.6002 66.6366 49.9122C66.7224 50.0548 66.9044 50.1071 67.0555 50.0359L72.5887 47.436C72.7715 47.3501 72.8471 47.1294 72.7552 46.9491C72.4882 46.4245 71.8822 45.3658 70.9105 44.4102C69.0366 42.5676 65.2065 40.7817 64.7378 37.7516C64.7095 37.5653 64.4631 37.5137 64.3635 37.6752H64.3661V37.676Z" fill="#0061FF"/>
<path d="M62.0276 40.2459C62.0276 40.2459 64.0173 45.6046 66.638 49.9166C66.7238 50.0591 66.9058 50.1115 67.0569 50.0402L72.5901 47.4403C72.7729 47.3544 72.8485 47.1338 72.7566 46.9535C72.4897 46.4289 71.8837 45.3702 70.9119 44.4145C69.2655 42.796 66.1101 41.2205 65.05 38.8086" stroke="black" stroke-width="0.392761" stroke-miterlimit="10" stroke-linecap="round"/>
<path d="M58.2331 35.627C58.2331 35.627 56.6726 36.7191 56.3275 39.8823" stroke="black" stroke-width="0.392761" stroke-miterlimit="10" stroke-linecap="round"/>
<path d="M61.2367 38.5745C61.2367 38.5745 59.9062 38.2474 58.6692 39.8839C57.7885 41.0482 57.8873 42.7131 57.8873 42.7131" stroke="black" stroke-width="0.392761" stroke-miterlimit="10" stroke-linecap="round"/>
<path d="M0.77274 69.5606C1.28005 71.2203 1.36074 74.8789 2.18909 78.2387L2.25004 78.34C2.25004 78.34 3.49128 82.3094 5.45014 84.0798C5.45014 84.0824 5.45185 84.0824 5.45357 84.0833C5.45357 84.0833 5.45443 84.0833 5.45529 84.0841C5.68877 84.2962 5.96861 84.4508 6.26561 84.5538L10.2323 85.9164C11.1645 86.2358 12.1611 86.3337 13.1379 86.1998C13.1508 86.1981 13.1637 86.1972 13.1766 86.1946C13.7491 86.1122 14.3122 85.9903 14.8633 85.8306C16.0402 85.4897 17.1621 84.9754 18.1904 84.3048C19.0866 83.7209 19.9115 83.0169 20.642 82.2038L38.1919 63.5107L40.713 60.8258C40.6117 60.6678 40.5173 60.5099 40.4315 60.3502C39.5035 58.6604 39.3756 56.8934 40.6169 55.1194C40.7328 54.9546 40.8873 54.8953 41.0564 54.8859C41.1122 54.8825 41.1697 54.8833 41.2289 54.8893H41.2298C41.6315 54.9237 42.0847 55.1014 42.3603 54.7528C43.1371 53.7663 42.186 51.776 42.9414 50.8787C43.8917 49.7471 45.3484 50.3017 46.745 48.818C47.0549 48.4892 47.236 48.1526 47.3862 47.834C47.3871 47.8332 47.3871 47.8315 47.3888 47.8306C47.4712 47.658 47.5459 47.4923 47.6283 47.3352C47.648 47.2948 47.6695 47.2562 47.6918 47.2184C47.7132 47.1806 47.7364 47.1429 47.7605 47.1068C47.7828 47.0699 47.8077 47.0347 47.8351 46.9995C47.86 46.9643 47.8866 46.9299 47.9167 46.8956C48.7244 45.9502 50.3159 45.0933 51.5546 43.4353C51.5631 43.4233 51.5709 43.413 51.5795 43.4018C52.261 42.4797 52.5486 41.324 52.4035 40.1863C51.6061 33.9184 51.3777 28.2292 51.3116 25.7074C51.3073 25.5391 51.3031 25.3837 51.2996 25.2446C51.2876 24.6573 51.2859 24.3336 51.2859 24.3336C51.1503 24.1688 50.9949 23.9884 50.8198 23.7935C50.6644 23.6201 50.4927 23.4346 50.309 23.2414H50.3082C49.7159 22.6164 48.9888 21.8951 48.1845 21.1275C47.3931 20.3728 46.5261 19.5717 45.6402 18.7706C45.6033 18.7363 45.5664 18.7036 45.5295 18.6693C43.1929 16.5622 38.6872 15.6392 36.7962 16.2978C34.5369 17.0851 27.5289 18.1421 24.2636 18.5302C22.0429 18.7946 18.5475 20.5265 17.7003 25.291C14.677 42.3148 12.3422 44.3292 10.7507 48.7777C10.7044 48.8507 10.2855 49.523 9.83139 50.6065C9.28545 51.9091 8.60388 53.1515 7.79957 54.3123C6.39866 56.3352 4.78746 58.5848 3.46123 60.2274C3.46123 60.2274 3.46123 60.2274 3.46038 60.2299C0.397621 64.0225 -0.0916643 66.734 0.77274 69.5606Z" fill="#0061FF"/>
<path d="M13.7407 60.228C13.7407 60.228 17.6739 63.4479 19.2473 70.1906L21.3658 67.3331C21.3658 67.3331 18.5383 63.7183 13.7407 60.228Z" fill="black"/>
<path d="M47.3895 47.8314C47.5543 47.4871 47.6865 47.1651 47.9166 46.8955C48.7243 45.9501 50.3158 45.0924 51.5545 43.4352C51.563 43.4232 51.5708 43.4129 51.5794 43.4017C52.2609 42.4796 52.5485 41.3239 52.4034 40.1862C51.3287 31.7331 51.2858 24.3335 51.2858 24.3335" stroke="black" stroke-width="0.392761" stroke-miterlimit="10" stroke-linecap="round"/>
<path d="M7.82848 61.5742L1.29266 71.2887" stroke="black" stroke-width="0.392761" stroke-miterlimit="10" stroke-linecap="round"/>
<path d="M13.29 62.6904C13.29 62.6904 14.3218 63.5284 12.6256 65.8321C10.9303 68.1375 9.70195 69.9569 8.62552 72.4581" stroke="black" stroke-width="0.392761" stroke-miterlimit="10" stroke-linecap="round"/>
<path d="M16.6882 67.9194C16.6882 67.9194 12.1868 70.7649 10.2932 72.4564" stroke="black" stroke-width="0.392761" stroke-miterlimit="10" stroke-linecap="round"/>
<path d="M9.00484 82.8989C8.67779 82.8474 8.30524 82.7779 7.90952 82.6851C6.82108 82.4293 5.76096 83.0732 5.45108 84.077C5.45108 84.077 5.4528 84.0804 5.45451 84.0821" stroke="black" stroke-width="0.392761" stroke-miterlimit="10" stroke-linecap="round"/>
<path d="M1.70468 62.62C2.14504 61.7013 2.76222 60.9071 3.45924 60.2279C3.45924 60.2279 3.45924 60.2279 3.4601 60.2253C5.17259 58.5536 7.36837 57.5636 8.63793 57.0922C9.26885 56.8578 9.67058 56.7505 9.67058 56.7505" stroke="black" stroke-width="0.392761" stroke-miterlimit="10" stroke-linecap="round"/>
<path d="M42.9824 49.9793C42.9824 49.9793 41.5197 50.3906 39.7977 49.3963C38.1985 48.4724 36.3848 46.9011 35.6843 46.2735C35.6345 46.2288 35.5616 46.2915 35.5985 46.3473C36.3152 47.4661 38.8003 50.9375 42.1806 51.1977" stroke="black" stroke-width="0.392761" stroke-miterlimit="10" stroke-linecap="round"/>
<path d="M41.2284 54.8898C41.2284 54.8898 41.0009 54.8898 40.6473 54.8624C39.9417 54.8083 39.0584 54.4434 39.0584 54.4434" stroke="black" stroke-width="0.392761" stroke-miterlimit="10" stroke-linecap="round"/>
<path d="M27.9723 40.4146C27.9723 40.4146 27.1774 50.1084 32.0265 54.6651" stroke="black" stroke-width="0.392761" stroke-miterlimit="10" stroke-linecap="round"/>
<path d="M84.6665 16.8345L74.4928 79.1806C74.2825 80.4703 75.0421 81.6629 76.128 81.7496C77.0731 81.8252 77.9332 81.0275 78.1152 79.9044L88.5121 16.0505C88.6975 14.918 87.985 14.1788 86.924 14.3943C85.8622 14.6098 84.8519 15.7019 84.6673 16.8328H84.6665V16.8345Z" fill="black"/>
<path d="M118.754 9.93649C118.751 9.63082 118.53 9.38612 118.261 9.38869L106.167 9.52264C105.688 9.52779 105.304 9.91331 105.309 10.3813L105.418 19.7316C105.423 20.2004 105.817 20.5765 106.296 20.5705L118.386 20.4366C118.656 20.434 118.873 20.1816 118.87 19.8742L118.755 9.93563L118.754 9.93649Z" fill="white" stroke="black" stroke-width="0.392761" stroke-miterlimit="10" stroke-linecap="round"/>
<path d="M62.5827 12.8825L62.6402 18.0333L66.4815 17.9895L67.9571 17.9732C68.6121 17.9663 69.1366 17.4297 69.1297 16.7746L69.0979 13.9935C69.0911 13.3384 68.5546 12.8146 67.8988 12.8224L66.4206 12.8387L62.5818 12.8825H62.5827Z" fill="white" stroke="black" stroke-width="0.392761" stroke-miterlimit="10" stroke-linecap="round"/>
<path d="M67.7816 12.357L67.8503 18.4266C67.8572 19.0817 68.3937 19.6055 69.0486 19.5978L79.127 19.4836L82.4834 19.4458L83.7933 19.4312C84.4482 19.4243 84.9719 18.8877 84.9641 18.2325L84.8955 12.163C84.8886 11.5078 84.3521 10.9832 83.6971 10.9918L82.5168 11.0047L79.0747 11.0433L68.9525 11.1575C68.2975 11.1661 67.7739 11.701 67.7816 12.357Z" fill="white" stroke="black" stroke-width="0.392761" stroke-miterlimit="10" stroke-linecap="round"/>
<path d="M80.8001 10.3259L80.9117 20.176C80.9186 20.8311 81.4551 21.3549 82.1101 21.3471L89.0141 21.269L90.427 21.2527L93.5911 21.2175L95.8264 21.1926L97.0229 21.1788C97.6779 21.172 98.2024 20.6353 98.1938 19.9802L98.0831 10.1293C98.0745 9.47412 97.5397 8.95036 96.8839 8.95809L95.756 8.97097L93.6366 8.99501L90.4279 9.03193L89.015 9.04825L81.9718 9.12724C81.3169 9.13583 80.7933 9.67075 80.801 10.3267H80.8001V10.3259Z" fill="white" stroke="black" stroke-width="0.392761" stroke-miterlimit="10" stroke-linecap="round"/>
<path d="M88.1456 9.06917V21.2916L92.114 21.2753V9.05371L88.1456 9.07002V9.06917Z" fill="#F8FF6E"/>
<path d="M88.1456 9.06917V21.2916L92.114 21.2753V9.05371L88.1456 9.07002V9.06917Z" stroke="black" stroke-width="0.392761" stroke-miterlimit="10" stroke-linecap="round"/>
<path d="M112.979 7.16724L95.8038 7.36215C95.1488 7.36902 94.6244 7.90738 94.6312 8.56079L94.7797 21.6161C94.7866 22.2712 95.3248 22.7958 95.9781 22.7873L113.153 22.5924L112.979 7.16553V7.16724Z" fill="white" stroke="black" stroke-width="0.392761" stroke-miterlimit="10" stroke-linecap="round"/>
<path d="M104.21 13.1718L102.883 13.1872C102.228 13.1941 101.703 13.7307 101.712 14.3858L101.725 15.6532C101.732 16.3083 102.271 16.8329 102.924 16.8243L104.251 16.8089C105.254 16.7968 106.06 15.9726 106.049 14.9688C106.037 13.9651 105.214 13.1589 104.21 13.17V13.1726V13.1718Z" fill="#F8FF6E"/>
<path d="M104.21 13.1718L102.883 13.1872C102.228 13.1941 101.703 13.7307 101.712 14.3858L101.725 15.6532C101.732 16.3083 102.271 16.8329 102.924 16.8243L104.251 16.8089C105.254 16.7968 106.06 15.9726 106.049 14.9688C106.037 13.9651 105.214 13.1589 104.21 13.17V13.1726V13.1718Z" stroke="black" stroke-width="0.392761" stroke-miterlimit="10" stroke-linecap="round"/>
<path d="M103.417 17.8398L101.74 17.8587C101.549 17.8613 101.396 18.0176 101.397 18.2091L101.402 18.58C101.404 18.7714 101.561 18.9243 101.752 18.9217L103.429 18.9028C103.722 18.8994 103.957 18.6581 103.954 18.3662C103.95 18.0734 103.71 17.8373 103.417 17.8416H103.416L103.417 17.8398Z" fill="#F8FF6E"/>
<path d="M103.417 17.8398L101.74 17.8587C101.549 17.8613 101.396 18.0176 101.397 18.2091L101.402 18.58C101.404 18.7714 101.561 18.9243 101.752 18.9217L103.429 18.9028C103.722 18.8994 103.957 18.6581 103.954 18.3662C103.95 18.0734 103.71 17.8373 103.417 17.8416H103.416L103.417 17.8398Z" stroke="black" stroke-width="0.392761" stroke-miterlimit="10" stroke-linecap="round"/>
<path d="M103.217 11.4185L101.539 11.4373C101.348 11.4399 101.195 11.5962 101.197 11.7877L101.202 12.1577C101.205 12.3492 101.361 12.502 101.552 12.5003L103.23 12.4814C103.522 12.478 103.758 12.2376 103.754 11.9448C103.751 11.652 103.51 11.4167 103.218 11.4202H103.217V11.4185Z" fill="#F8FF6E"/>
<path d="M103.217 11.4185L101.539 11.4373C101.348 11.4399 101.195 11.5962 101.197 11.7877L101.202 12.1577C101.205 12.3492 101.361 12.502 101.552 12.5003L103.23 12.4814C103.522 12.478 103.758 12.2376 103.754 11.9448C103.751 11.652 103.51 11.4167 103.218 11.4202H103.217V11.4185Z" stroke="black" stroke-width="0.392761" stroke-miterlimit="10" stroke-linecap="round"/>
<path d="M112.094 14.8907C112.046 10.6302 112.441 7.17252 112.975 7.16651C113.512 7.1605 113.985 10.6087 114.033 14.8683C114.081 19.1288 113.686 22.5865 113.152 22.5925C112.616 22.5985 112.143 19.1503 112.095 14.8907H112.094Z" fill="black"/>
<path d="M113.836 5.70166C115.872 5.70166 117.525 7.35536 117.525 9.39201V20.2252C117.525 22.2619 115.872 23.9156 113.836 23.9156C113.253 23.9156 112.779 23.4416 112.779 22.8586V6.75862C112.779 6.17562 113.253 5.70166 113.836 5.70166Z" fill="white" stroke="black" stroke-width="0.392761" stroke-miterlimit="10" stroke-linecap="round"/>
<path d="M90.1299 20.1759C87.9479 20.1759 86.1796 18.4063 86.1796 16.2237C86.1796 14.0411 87.9487 12.2715 90.1299 12.2715C92.3119 12.2715 94.0802 14.0411 94.0802 16.2237C94.0802 18.4063 92.3111 20.1759 90.1299 20.1759Z" fill="white" stroke="black" stroke-width="0.392761" stroke-miterlimit="10" stroke-linecap="round"/>
<path d="M90.1319 18.7641C88.6658 18.7641 87.4786 17.6282 87.4786 16.2278C87.4786 14.8274 88.6658 13.6914 90.1319 13.6914C91.5981 13.6914 92.7852 14.8265 92.7852 16.2278C92.7852 17.629 91.5981 18.7641 90.1319 18.7641Z" fill="#F8FF6E"/>
<path d="M90.1319 18.7641C88.6658 18.7641 87.4786 17.6282 87.4786 16.2278C87.4786 14.8274 88.6658 13.6914 90.1319 13.6914C91.5981 13.6914 92.7852 14.8265 92.7852 16.2278C92.7852 17.629 91.5981 18.7641 90.1319 18.7641Z" stroke="black" stroke-width="0.392761" stroke-miterlimit="10" stroke-linecap="round"/>
<path d="M88.4697 17.0934L102.285 81.9966C102.487 82.9522 103.187 83.6176 103.986 83.6176C105.14 83.6176 105.982 82.2688 105.688 80.8898L91.8723 15.9875C91.6243 14.8241 90.6637 14.1329 89.7221 14.436C88.7821 14.7417 88.2207 15.9309 88.4688 17.0926H88.4697V17.0934Z" fill="white" stroke="black" stroke-width="0.392761" stroke-miterlimit="10" stroke-linecap="round"/>
<path d="M59.8741 79.8481L64.0064 87.6444L64.0124 87.6564H65.0502L65.0528 87.6573L68.6255 87.6624C70.8976 87.6659 73.1578 87.3112 75.3227 86.6166L78.9648 85.4455C79.1734 85.3785 79.3743 85.2935 79.564 85.1905C79.8979 85.0144 80.2009 84.7869 80.4627 84.5207C80.873 84.1009 81.1829 83.5831 81.3563 83.0035C81.4413 82.7202 81.4825 82.4291 81.4825 82.1398C81.4825 81.6074 81.3426 81.0802 81.067 80.6123C80.7666 80.0988 80.3983 79.6352 79.976 79.2333C79.8773 79.1346 79.7743 79.0419 79.6696 78.9534C79.6687 78.9534 79.667 78.9534 79.6653 78.9509C78.988 78.379 78.1948 77.9506 77.3304 77.6981L75.6085 77.1967C74.8334 76.9717 74.0351 76.8584 73.2368 76.8584C72.4384 76.8584 71.5646 76.982 70.7569 77.2302C69.2418 77.6947 67.6598 77.9119 66.0752 77.8733L61.7986 77.7668C61.2699 77.7548 60.7832 77.972 60.4424 78.3344C60.3196 78.464 60.2158 78.6126 60.1359 78.7766C60.1136 78.8229 60.0921 78.871 60.0733 78.9191C60.0312 79.0273 59.9977 79.1423 59.978 79.2608L59.875 79.8481H59.8741Z" fill="#0061FF"/>
<path d="M66.4403 78.6577C64.7948 78.6577 62.8763 78.51 60.7337 78.2198C61.0256 77.9957 61.387 77.8703 61.7587 77.8703H61.7964L66.0721 77.9768C66.194 77.9794 66.3159 77.9811 66.4378 77.9811C67.9159 77.9811 69.3821 77.7613 70.795 77.3277C71.565 77.0916 72.432 76.9619 73.2371 76.9619C74.0423 76.9619 74.8114 77.0744 75.5728 77.2951L77.2948 77.7965C77.8227 77.951 78.3205 78.1691 78.7832 78.449C77.7609 78.1022 76.0183 77.6359 74.0294 77.6359C72.826 77.6359 71.686 77.8085 70.6396 78.1494C69.607 78.486 68.1941 78.6568 66.4403 78.6568V78.6577Z" fill="white"/>
<path d="M73.2381 77.0895C74.015 77.0895 74.7884 77.2003 75.5378 77.4175L76.8082 77.7876C75.9858 77.6244 75.039 77.5059 74.0296 77.5059C72.8132 77.5059 71.6587 77.6811 70.5994 78.0263C69.5796 78.3585 68.1796 78.5268 66.4396 78.5268C64.8928 78.5268 63.1039 78.3963 61.1133 78.1379C61.3141 78.046 61.5339 77.9971 61.7579 77.9971C61.77 77.9971 61.7811 77.9971 61.7923 77.9971L66.0688 78.1035C66.1916 78.107 66.3152 78.1078 66.4371 78.1078C67.9281 78.1078 69.4071 77.8863 70.832 77.4493C71.59 77.2166 72.4432 77.0886 73.2364 77.0886M73.2364 76.8311C72.4381 76.8311 71.5642 76.9547 70.7565 77.2028C69.3565 77.6321 67.8998 77.8502 66.4371 77.8502C66.316 77.8502 66.1958 77.8485 66.0748 77.8459L61.7983 77.7395C61.7845 77.7395 61.7708 77.7395 61.7571 77.7395C61.2446 77.7395 60.7734 77.9541 60.442 78.3079C62.2309 78.5586 64.4095 78.7844 66.4388 78.7844C68.0294 78.7844 69.5281 78.6453 70.6784 78.271C71.8132 77.9009 72.9566 77.7635 74.0287 77.7635C77.0511 77.7635 79.5139 78.8565 79.6649 78.9244C78.9877 78.3525 78.1945 77.9241 77.3301 77.6716L75.6082 77.1702C74.833 76.9452 74.0347 76.8319 73.2364 76.8319V76.8311Z" fill="black"/>
<path d="M37.8307 60.2471L39.7363 77.611C39.7363 77.611 47.4395 82.2973 58.0244 77.5784C58.7429 77.2589 59.3996 76.9516 60.0022 76.6579C62.6082 75.3872 64.2195 74.3542 65.5182 73.4939C66.332 72.9555 67.023 72.4867 67.7586 72.0703C67.9131 72.2188 68.0651 72.3614 68.2153 72.4996C71.727 75.7495 73.9228 76.3668 76.0387 77.1327C78.1667 77.9029 77.5392 79.4828 77.4842 79.609C80.3461 74.7174 88.6348 67.5239 88.2047 63.1312C87.9361 60.3836 84.9909 56.8676 83.0698 57.3518C81.1487 57.8352 77.2156 57.3424 76.2524 57.1647C75.2876 56.9861 74.1262 56.6357 73.0515 58.0413C72.8051 58.3633 72.521 58.7265 72.2309 59.0957C67.9818 58.6406 65.4573 59.124 60.5215 59.9157C55.5857 60.7073 50.5641 62.7036 48.1597 63.6945C45.7554 64.6853 46.9451 63.1278 46.4807 62.7036C44.6961 61.0731 41.9853 60.5133 40.0745 60.3261C38.7646 60.1999 37.8315 60.248 37.8315 60.248L37.8307 60.2471Z" fill="#CCDFFF" stroke="black" stroke-width="0.392761" stroke-miterlimit="10" stroke-linecap="round"/>
<path d="M66.4765 73.4792C66.4765 73.4792 70.8037 78.3158 73.8081 79.8836C76.8142 81.4532 77.5936 79.6475 77.5936 79.6475C77.5936 79.6475 78.1661 77.9062 76.0382 77.136C73.9222 76.3702 71.7264 75.7537 68.2148 72.5029L66.4765 73.4783V73.4792Z" fill="black"/>
<path d="M37.051 79.0806L40.5996 80.7017H53.6481L68.2554 76.3167L71.7809 75.258C71.7809 75.258 69.883 74.0027 68.9602 73.1699C68.3739 72.6401 66.7241 70.9074 64.3798 69.659C63.4313 69.1541 62.3703 68.7282 61.2183 68.493C60.7367 68.3951 60.2406 68.3298 59.7298 68.3066L39.9215 77.718L37.0519 79.0806H37.051Z" fill="white" stroke="black" stroke-width="0.392761" stroke-miterlimit="10" stroke-linecap="round"/>
<path d="M79.941 59.9121C79.941 59.9121 74.7357 60.7287 73.0644 60.666C71.3948 60.6033 71.6145 61.4525 71.1999 61.5924C67.2505 62.9104 63.3902 66.3243 63.3902 66.3243L59.7283 68.3043C59.7283 68.3043 63.895 68.3489 67.7063 72.0204C67.7243 72.0367 67.7406 72.0539 67.7578 72.0702" stroke="black" stroke-width="0.392761" stroke-miterlimit="10" stroke-linecap="round"/>
<path d="M72.2321 59.0942C71.2509 60.3367 70.1857 61.6426 70.1857 61.6426" stroke="black" stroke-width="0.392761" stroke-miterlimit="10" stroke-linecap="round"/>
<path d="M63.2509 87.6588C63.0587 87.6588 62.8578 87.652 62.6518 87.6365H62.6501C59.3083 87.4004 54.2489 85.3071 49.8909 83.1957C49.6248 83.0669 49.3612 82.9373 49.1011 82.8085C47.605 82.0692 46.2126 81.3411 45.0298 80.7032C43.8898 80.0884 42.943 79.5578 42.2838 79.1817C41.7619 78.8863 41.4202 78.6854 41.3035 78.6159C41.2743 78.5978 41.2589 78.5884 41.2589 78.5884L41.3043 78.5867L42.2057 78.5317L49.0891 78.1144L50.7793 78.0114L58.0267 77.5718C58.0267 77.5718 60.7401 79.6376 63.5754 80.4894C66.4098 81.3403 67.8682 81.6631 68.0708 83.6903C68.2734 85.7158 67.5481 87.6588 63.2509 87.6588Z" fill="white"/>
<path d="M54.0531 79.4136C54.0531 79.4136 51.8968 79.994 49.1019 82.8077C47.6057 82.0684 46.2134 81.3403 45.0305 80.7024L45.3799 79.6772L54.0531 79.4136Z" fill="black"/>
<path d="M63.2509 87.6588C63.0587 87.6588 62.8578 87.652 62.6518 87.6365H62.6501C59.3083 87.4004 54.2489 85.3071 49.8909 83.1957C49.6248 83.0669 49.3612 82.9373 49.1011 82.8085C47.605 82.0692 46.2126 81.3411 45.0298 80.7032C43.8898 80.0884 42.943 79.5578 42.2838 79.1817C41.7619 78.8863 41.4202 78.6854 41.3035 78.6159C41.2743 78.5978 41.2589 78.5884 41.2589 78.5884L41.3043 78.5867L42.2057 78.5317L49.0891 78.1144L50.7793 78.0114L58.0267 77.5718C58.0267 77.5718 60.7401 79.6376 63.5754 80.4894C66.4098 81.3403 67.8682 81.6631 68.0708 83.6903C68.2734 85.7158 67.5481 87.6588 63.2509 87.6588Z" stroke="black" stroke-width="0.392761" stroke-miterlimit="10" stroke-linecap="round"/>
<path d="M61.6388 4.79395C61.6388 4.79395 65.6217 6.76791 65.226 9.92592C64.8106 13.2471 60.1314 12.9045 60.1314 12.9045L61.6388 4.79395Z" fill="black"/>
<path d="M26.6224 88.0003H41.5868C45.4144 88.0003 48.5175 84.8964 48.5175 81.0669V79.1427C48.5175 77.6075 47.7475 76.1762 46.4685 75.3288C44.7002 74.1576 42.4658 73.9404 40.5044 74.7475L28.5392 79.6691C26.8533 80.3628 25.3829 81.4928 24.2816 82.9464C23.9348 83.4024 23.7477 83.9596 23.7477 84.5314V85.1239C23.7477 86.7115 25.0344 87.9994 26.6216 87.9994L26.6224 88.0003Z" fill="black"/>
<path d="M34.8001 83.0746C34.097 80.8843 35.8216 78.3719 38.6517 77.4635C41.4818 76.5542 44.3463 77.5932 45.0493 79.7826C45.7523 81.973 44.0278 84.4853 41.1968 85.3937C38.3667 86.3021 35.5022 85.2641 34.7992 83.0746H34.8001Z" fill="white" stroke="black" stroke-width="0.392761" stroke-miterlimit="10" stroke-linecap="round"/>
<path d="M27.0767 85.2947C26.7771 84.3623 27.7351 83.2212 29.215 82.7464C30.6949 82.2707 32.1378 82.6416 32.4365 83.5732C32.7353 84.5057 31.7782 85.6468 30.2983 86.1224C28.8184 86.5973 27.3754 86.2272 27.0767 85.2947Z" fill="white" stroke="black" stroke-width="0.392761" stroke-miterlimit="10" stroke-linecap="round"/>
<path d="M5.44943 84.0925C5.44943 84.0925 5.45115 84.095 5.45287 84.0959C5.68635 84.308 5.96533 84.4643 6.26405 84.5656L10.2316 85.9291C11.1766 86.2528 12.187 86.3489 13.1759 86.2072C11.7174 84.8575 10.2504 83.0561 10.2504 83.0561C10.2504 83.0561 9.20406 83.0046 7.90788 82.6998C6.81943 82.4439 5.75931 83.0879 5.44943 84.0916V84.0925Z" fill="black"/>
<path d="M50.8617 24.6139C51.8146 26.642 52.0283 29.654 54.4035 31.5035C57.0774 33.5856 60.4217 32.0092 60.2946 29.0332C60.159 25.8718 59.2242 25.9679 60.3204 19.9653C61.159 15.376 56.6465 14.6917 53.3536 15.6542C51.0317 16.3325 48.2462 19.0414 50.8626 24.6147H50.8617V24.6139Z" fill="black"/>
<path d="M44.8869 15.1251L47.4921 27.7837L52.2657 24.6146C53.3309 25.3015 54.4305 25.9214 55.3447 26.4117C56.5774 27.0702 58.1139 26.6538 58.8401 25.4586C59.8874 23.7362 60.7998 21.9734 61.1372 21.308C61.2222 21.1406 61.3998 21.0436 61.5853 21.0616L61.8514 21.0874C62.5638 21.1569 63.1759 20.5859 63.1578 19.8698C63.1295 18.7622 62.9853 17.8349 62.8583 17.2133C62.7449 16.6577 62.7484 16.085 62.8746 15.5321C63.0608 14.7173 63.3063 13.3091 63.3767 11.3412C63.4969 8.04491 62.0393 6.7484 62.0393 6.7484L56.9671 3.52686C56.9671 3.52686 49.8356 5.62532 49.2012 5.54461C48.5677 5.46218 44.8852 15.1251 44.8852 15.1251H44.8869Z" fill="white" stroke="black" stroke-width="0.392761" stroke-miterlimit="10" stroke-linecap="round"/>
<path d="M50.8854 23.666L49.627 26.3655L52.2674 24.6139L50.8854 23.6669V23.666Z" fill="black"/>
<path d="M52.2659 24.6123C51.6701 24.2302 51.0864 23.8267 50.5508 23.4146" stroke="black" stroke-width="0.392761" stroke-miterlimit="10" stroke-linecap="round"/>
<path d="M60.9256 14.3332C60.9256 14.3332 59.1221 13.9494 57.8311 15.2674" stroke="black" stroke-width="0.392761" stroke-miterlimit="10" stroke-linecap="round"/>
<path d="M59.5635 16.4202C59.5635 16.4202 59.1351 16.3312 58.7626 16.5563" stroke="black" stroke-width="0.392761" stroke-miterlimit="10" stroke-linecap="round"/>
<path d="M59.4429 21.4795C59.0231 21.5293 58.4617 21.6255 57.9767 21.8135C57.7183 21.9123 57.6823 22.2643 57.9132 22.4163C58.1003 22.5399 58.3433 22.6687 58.6282 22.7546C58.9527 22.8525 59.3064 22.7383 59.5081 22.4652C59.5965 22.3459 59.6944 22.1965 59.7974 22.0119C59.939 21.756 59.7347 21.4443 59.4446 21.4787H59.4437L59.4429 21.4795Z" fill="black"/>
<path d="M60.0022 76.6593C59.9498 76.6018 59.8949 76.5469 59.833 76.4979L40.3698 60.5602C40.2719 60.4795 40.1741 60.4022 40.0736 60.3267" fill="white"/>
<path d="M60.0022 76.6593C59.9498 76.6018 59.8949 76.5469 59.833 76.4979L40.3698 60.5602C40.2719 60.4795 40.1741 60.4022 40.0736 60.3267" stroke="#141415" stroke-width="0.392761" stroke-miterlimit="10" stroke-linecap="round"/>
<path d="M70.8531 81.9121C70.8531 81.9121 72.3106 83.6319 70.8531 85.9227" stroke="black" stroke-width="0.392761" stroke-miterlimit="10" stroke-linecap="round"/>
<path d="M72.707 81.9121C72.707 81.9121 74.1645 83.6319 72.707 85.9227" stroke="black" stroke-width="0.392761" stroke-miterlimit="10" stroke-linecap="round"/>
<path d="M74.685 81.9121C74.685 81.9121 76.1425 83.6319 74.685 85.9227" stroke="black" stroke-width="0.392761" stroke-miterlimit="10" stroke-linecap="round"/>
<path d="M79.589 85.0035C78.9177 84.2865 78.5486 83.3541 78.5486 82.3684C78.5486 81.1972 79.0645 80.1136 79.9684 79.377C80.3504 79.7547 80.6826 80.1823 80.9564 80.6503C81.2165 81.0933 81.3538 81.5991 81.3538 82.1134C81.3538 82.3941 81.3135 82.6723 81.2328 82.9402C81.0688 83.4889 80.7701 83.9946 80.3701 84.4042C80.1375 84.6412 79.8748 84.8429 79.5881 85.0043L79.589 85.0035Z" fill="white"/>
<path d="M79.9589 79.5483C80.2989 79.8977 80.5959 80.2876 80.844 80.7117C81.092 81.135 81.2234 81.6184 81.2234 82.1096C81.2234 82.3783 81.1847 82.6436 81.1083 82.8995C80.9504 83.4275 80.6628 83.9161 80.2774 84.3102C80.0765 84.5145 79.8542 84.6914 79.6122 84.8374C79.007 84.1548 78.6756 83.285 78.6756 82.3663C78.6756 81.2733 79.14 80.2592 79.9581 79.5491M79.9744 79.2031C79.0276 79.9321 78.4173 81.0775 78.4173 82.3663C78.4173 83.455 78.8533 84.4416 79.5615 85.1611C79.8954 84.9851 80.1984 84.7575 80.4602 84.4905C80.8706 84.0706 81.1804 83.5529 81.3538 82.9733C81.4388 82.69 81.48 82.3989 81.48 82.1096C81.48 81.5772 81.3392 81.05 81.0646 80.5821C80.7641 80.0686 80.3959 79.605 79.9735 79.2031H79.9744Z" fill="black"/>
<path d="M57.1883 17.5849C57.0922 17.5849 57.0141 17.5068 57.0141 17.4106C57.0141 17.3145 57.0922 17.2363 57.1883 17.2363C57.2845 17.2363 57.3626 17.3145 57.3626 17.4106C57.3626 17.5068 57.2845 17.5849 57.1883 17.5849Z" fill="black"/>
<path d="M56.4101 18.5752C56.314 18.5752 56.2358 18.497 56.2358 18.4009C56.2358 18.3047 56.314 18.2266 56.4101 18.2266C56.5062 18.2266 56.5843 18.3047 56.5843 18.4009C56.5843 18.497 56.5062 18.5752 56.4101 18.5752Z" fill="black"/>
<path d="M57.3607 19.061C57.2645 19.061 57.1864 18.9829 57.1864 18.8867C57.1864 18.7905 57.2645 18.7124 57.3607 18.7124C57.4568 18.7124 57.5349 18.7905 57.5349 18.8867C57.5349 18.9829 57.4568 19.061 57.3607 19.061Z" fill="black"/>
<path d="M56.1132 17.4111C56.017 17.4111 55.9389 17.333 55.9389 17.2368C55.9389 17.1406 56.017 17.0625 56.1132 17.0625C56.2093 17.0625 56.2874 17.1406 56.2874 17.2368C56.2874 17.333 56.2093 17.4111 56.1132 17.4111Z" fill="black"/>
<path d="M55.3894 17.7627C55.2932 17.7627 55.2151 17.6845 55.2151 17.5884C55.2151 17.4922 55.2932 17.4141 55.3894 17.4141C55.4855 17.4141 55.5636 17.4922 55.5636 17.5884C55.5636 17.6845 55.4855 17.7627 55.3894 17.7627Z" fill="black"/>
<path d="M62.409 17.6757C62.3129 17.6757 62.2348 17.5976 62.2348 17.5014C62.2348 17.4053 62.3129 17.3271 62.409 17.3271C62.5052 17.3271 62.5833 17.4053 62.5833 17.5014C62.5833 17.5976 62.5052 17.6757 62.409 17.6757Z" fill="black"/>
<path d="M61.3835 18.3955C61.2874 18.3955 61.2093 18.3173 61.2093 18.2212C61.2093 18.125 61.2874 18.0469 61.3835 18.0469C61.4797 18.0469 61.5578 18.125 61.5578 18.2212C61.5578 18.3173 61.4797 18.3955 61.3835 18.3955Z" fill="black"/>
<path d="M61.1567 17.4941C61.253 17.4941 61.331 17.4161 61.331 17.3198C61.331 17.2235 61.253 17.1455 61.1567 17.1455C61.0605 17.1455 60.9825 17.2235 60.9825 17.3198C60.9825 17.4161 61.0605 17.4941 61.1567 17.4941Z" fill="black"/>
<path d="M60.3074 18.5752C60.2112 18.5752 60.1331 18.497 60.1331 18.4009C60.1331 18.3047 60.2112 18.2266 60.3074 18.2266C60.4035 18.2266 60.4816 18.3047 60.4816 18.4009C60.4816 18.497 60.4035 18.5752 60.3074 18.5752Z" fill="black"/>
<path d="M60.6554 3.52655C63.0546 5.36572 64.7268 8.18113 62.9739 10.7905C61.3335 13.2341 56.7214 11.4027 52.747 13.2341C50.5461 14.2473 46.7442 16.6883 48.7443 25.3286C49.5117 28.6446 50.5478 34.9907 45.3571 34.7571C41.9819 34.6052 40.5938 32.28 40.3664 28.9761C39.9535 22.9803 37.0315 20.6895 34.7567 18.3386C33.9971 17.5538 34.167 16.5269 35.1533 16.1028C36.1396 15.6795 37.9422 16.1028 38.2195 15.7834C38.5852 15.3601 38.5508 13.6514 39.3998 13.016C39.9758 12.5859 40.4728 12.6786 40.9398 13.016C41.0951 13.1294 41.2402 13.2599 41.3681 13.3904C41.5793 13.605 41.9449 13.4788 41.9767 13.1792C42.4274 9.05607 44.0926 5.25152 45.6266 3.52827C48.667 0.11783 52.9916 -2.34813 60.6545 3.52827H60.6554V3.52655Z" fill="black"/>
<path d="M62.4336 5.26758C63.5667 6.7238 64.1032 8.4419 63.3487 10.1171" stroke="white" stroke-width="0.392761" stroke-miterlimit="10" stroke-linecap="round"/>
<path d="M29.129 21.1445L29.808 22.0624C30.378 22.8326 30.6638 23.7753 30.6192 24.7318C30.481 27.6486 28.923 35.9987 27.9702 40.3871C26.7118 46.175 25.9564 47.979 26.0826 49.9504" stroke="black" stroke-width="0.392761" stroke-miterlimit="10" stroke-linecap="round"/>
<path d="M20.26 28.3794C20.26 28.3794 24.164 28.8903 28.7323 35.6596" stroke="black" stroke-width="0.392761" stroke-miterlimit="10" stroke-linecap="round"/>
<path d="M26.6579 51.1715C26.6579 51.1715 24.2664 51.035 20.8491 47.5713" stroke="black" stroke-width="0.392761" stroke-miterlimit="10" stroke-linecap="round"/>
<path d="M25.5346 53.1515C25.5346 53.1515 23.3431 52.6938 20.8504 50.8195C18.3559 48.9434 16.864 47.8066 16.458 48.1663C16.0468 48.5321 20.3216 53.4958 24.8719 54.9357" stroke="black" stroke-width="0.392761" stroke-miterlimit="10" stroke-linecap="round"/>
<path d="M24.7663 55.2854C24.7663 55.2854 17.2434 55.2854 14.1317 53.7158" stroke="black" stroke-width="0.392761" stroke-miterlimit="10" stroke-linecap="round"/>
<path d="M14.5265 54.2046C18.3987 57.1153 23.3002 56.1253 25.7784 55.3251C26.6307 55.0503 27.5475 55.4891 27.8789 56.322C28.3939 57.615 29.3519 59.4104 30.9914 60.6254" stroke="black" stroke-width="0.392761" stroke-miterlimit="10" stroke-linecap="round"/>
<path d="M20.0612 65.9156C20.0217 65.8684 19.9839 65.8211 19.9444 65.7739C18.8569 64.4534 17.6723 63.3449 16.5014 62.3669C16.4946 62.3609 16.4885 62.3566 16.4825 62.3506C15.0533 61.1588 13.6464 60.1594 12.461 59.2055C12.2524 59.038 12.0506 58.8715 11.8575 58.704C11.8558 58.704 11.8549 58.7032 11.8541 58.7015C11.1553 58.1021 10.5605 57.5114 10.1218 56.8881C9.67461 56.257 9.38791 55.595 9.31323 54.8626C9.30207 54.7492 9.29606 54.6316 9.29434 54.5071V54.4728C9.29434 53.5841 9.55186 52.4387 9.95788 51.1138C10.1802 50.3814 10.4506 49.5941 10.745 48.7646" stroke="black" stroke-width="0.392761" stroke-miterlimit="10" stroke-linecap="round"/>
<path d="M9.11823 82.9372C10.8256 86.2395 16.861 87.6708 19.1666 87.6657C25.3368 87.6545 23.6174 83.4224 28.5163 82.6496C31.4288 82.1894 32.9284 81.3273 33.6641 80.704C35.307 81.0955 36.3946 80.6052 37.0513 80.0634C38.9595 81.9344 41.6222 82.3207 44.2275 82.1009C47.225 81.8494 50.1444 80.795 51.747 80.2772C55.2853 79.1327 56.5763 81.0818 58.8022 79.9587C60.0632 79.3216 60.367 78.4123 60.3945 77.7434C60.4142 77.2643 60.2048 76.8058 59.834 76.5019L40.3707 60.5642C36.6744 57.5384 31.3876 57.4345 27.5746 60.3143L20.977 65.2986C19.9254 66.0928 19.1374 67.1841 18.7108 68.4317C17.9262 70.7216 17.2189 73.3336 16.43 75.6647C15.6669 77.9203 14.8283 79.9166 13.7724 81.1058C12.2282 82.8471 10.3294 83.0385 9.11908 82.9372H9.11823Z" fill="#CCDFFF" stroke="black" stroke-width="0.392761" stroke-miterlimit="10" stroke-linecap="round"/>
<path d="M35.2083 77.1416C35.6745 78.378 36.3037 79.3362 37.0496 80.0678" stroke="black" stroke-width="0.392761" stroke-miterlimit="10" stroke-linecap="round"/>
<path d="M30.3849 79.0845C31.663 79.9938 32.7497 80.4857 33.6631 80.7055" stroke="black" stroke-width="0.392761" stroke-miterlimit="10" stroke-linecap="round"/>
</g>
<defs>
<clipPath id="clip0_25829_28096">
<rect width="118.609" height="88" fill="white" transform="translate(0.391266)"/>
</clipPath>
</defs>
</svg>
