<svg xmlns="http://www.w3.org/2000/svg" fill="none" viewBox="0 0 391 446" aria-hidden="true" class="sc-de1ce1f7-0 jdkRWC"><path fill="#fff" d="m342.6 273.9-90.5 96-86.8 27.1-73.9-83.6 3.7-1.9 3.6-9.4 20.7-9.1 110.8 6.6s33.1-10.4 48.8-20.5c15.6-10 36.3-18.8 36.3-18.8l27.3 13.6Z"></path><path stroke="#000" stroke-linecap="round" stroke-miterlimit="10" stroke-width="0.9" d="m342.6 273.9-90.5 96-86.8 27.1-73.9-83.6 3.7-1.9 3.6-9.4 20.7-9.1 110.8 6.6s33.1-10.4 48.8-20.5c15.6-10 36.3-18.8 36.3-18.8l27.3 13.6v0Z"></path><path stroke="#000" stroke-linecap="round" stroke-miterlimit="10" stroke-width="0.9" d="M185 328.7s24.9-15.3 47.8-20.3"></path><path stroke="#000" stroke-linecap="round" stroke-miterlimit="10" stroke-width="0.9" d="M311.2 270c-1.2-3-5.7-2-8.5-.3-16.8 9.8-31.6 22.5-47.5 33.5a159.3 159.3 0 0 1-68.2 28.7c-24.7 3.2-51.3-2.4-69.9-19"></path><path stroke="#000" stroke-linecap="round" stroke-miterlimit="10" stroke-width="0.9" d="M181.2 307.5s17.6-1 40.7 2.4m-113.2-1.3s17.4-1.9 41.4-1.3m-36.5 1.9s19 5.3 39.2 13.7"></path><path fill="#fff" d="m89 221.5-.8 21-2 51.8-39.9-17.6c.9-15.8 6.4-55.8 6.4-55.8H57l31.9.6Z"></path><path fill="#000" d="m89 221.5-.8 21C66 239.3 54.9 226 54.9 226l2.3-5 31.8.6Z"></path><path stroke="#000" stroke-linecap="round" stroke-miterlimit="10" stroke-width="0.9" d="M52.7 220.9s-5.5 40-6.4 55.8l40 17.6 2.7-72.8-36.3-.6Z"></path><path fill="#fff" d="m258.6 282.1-33.8 10c-2.4-3-3.7-6.8-3.8-10.6l-1.8-52.5-.3-6.5-.2-7.5 2.7.2 29 2 4.7.4s-1.3 47.5 3.5 64.5Z"></path><path fill="#000" d="M254.2 223a80.9 80.9 0 0 1-35 6l-.3-6.5 2.5-7.3 29 2 3.8 5.8Z"></path><path stroke="#000" stroke-linecap="round" stroke-miterlimit="10" stroke-width="1.4" d="M255 217.6s-1.2 47.5 3.6 64.5l-33.8 10c-2.4-3-3.7-6.8-3.8-10.6l-2.3-66.5 36.3 2.6h0Z"></path><path fill="#fff" d="M294 269.4a3 3 0 0 1-1.2 1.7c-2.4 1.6-5 4-6.7 5.6a32.4 32.4 0 0 1-4.4 3.6c-6 4-15.9 10-15.9 10-3.5 2.2-7.8 4.4-11.8 6.3a27.2 27.2 0 0 1-25.3-1.3l-1.1-8-1.7-11.6 3.7-2.7s15-.1 24.9 2a9.5 9.5 0 0 1-4-2.3 3.8 3.8 0 0 1-1.3-2.8 1.5 1.5 0 0 1 1.1-1.5c1.3-.3 3.5-.6 5.3-.3 2.6.4 7 4.4 9.9 3.7a2.7 2.7 0 0 0 .5-.2c-1.1-.8-2.2-2-.6-3.2 1.5-1.2 4-1.4 5.7-1.4a5 5 0 0 1 3.6 1.7c1.2 1.3 3 3 4.2 3.3 2 .5 3.6 0 6.4-4 2.9-3.8 8.4-3 9-1.7.5.8.1 2.1-.2 3Z"></path><path fill="#000" d="m270.6 276.8-1.2.8a4 4 0 0 1-1.8.6 6 6 0 0 0-2.1-6.4l.4-.2c.8.3 1.7.8 2 1.2.7.8 2.7 4 2.7 4ZM254 296.6a27.2 27.2 0 0 1-25.3-1.3l-1.1-8c3.4 4 12.5 12.3 26.4 9.3Z"></path><path stroke="#000" stroke-linecap="round" stroke-miterlimit="10" stroke-width="1.4" d="M294 269.4a3 3 0 0 1-1.2 1.7c-2.4 1.6-5 4-6.7 5.6a32.4 32.4 0 0 1-4.4 3.6c-6 4-15.9 10-15.9 10-3.5 2.2-7.8 4.4-11.8 6.3a27.2 27.2 0 0 1-25.3-1.3l-2.8-19.6 3.7-2.7s15-.1 24.9 2a9.5 9.5 0 0 1-4-2.3 3.8 3.8 0 0 1-1.3-2.8 1.5 1.5 0 0 1 1.1-1.5c1.3-.3 3.5-.6 5.3-.3 2.8.5 7.5 5 10.4 3.5-1.1-.8-2.2-2-.6-3.2 1.5-1.2 4-1.4 5.7-1.4a5 5 0 0 1 3.6 1.7c1.2 1.3 3 3 4.2 3.3 2 .5 3.6 0 6.4-4 2.9-3.8 8.4-3 9-1.7.5.8.1 2.1-.2 3v0Z"></path><path stroke="#000" stroke-linecap="round" stroke-miterlimit="10" stroke-width="1.4" d="m266 271.6 1 .5c.5.2.9.6 1.2 1l2.8 4.3c.6.9 1.7 1.3 2.7 1l3.7-.9m-22.9-2.5c.1 0 .2.1.2.3v.7c.4 1.4 2.4 4.7 11.1 12"></path><path stroke="#000" stroke-linecap="round" stroke-miterlimit="10" stroke-width="1.4" d="M249.5 282.6s1.2-4.2 5.3-6.6m11.2-4.4h0m-11.5 3.4c1.2.1 2.7 1 3.8 1.8a7 7 0 0 0 4.2 1.4h4.8c1 0 1.9-.4 2.7-1"></path><path fill="#CCDFFF" d="m73.3 138.4-1.2.8a90.6 90.6 0 0 0-20.2 38.4 399.1 399.1 0 0 0-7.4 41.5c-.2 1.4.6 2.8 1.8 3.4 5.6 2.8 21.8 9 43.4 1.2l7.1-45.7s-7.3-35.3-23.5-39.6Z"></path><path stroke="#000" stroke-linecap="round" stroke-miterlimit="10" stroke-width="0.9" d="m73.3 138.4-1.2.8a90.6 90.6 0 0 0-20.2 38.4 399.1 399.1 0 0 0-7.4 41.5c-.2 1.4.6 2.8 1.8 3.4 5.6 2.8 21.8 9 43.4 1.2l7.1-45.7s-7.3-35.3-23.5-39.6h0Z"></path><path fill="#CCDFFF" d="M256.6 140s2.1 1.7 4.8 4.8c3.7 4.4 5.9 9.8 6.2 15.4l3.3 56.3c0 1.2-.6 2.4-1.8 2.8-5.5 2.3-22.4 8-41-1.3l15.8-64.8s7.1-12.6 12.7-13.2Z"></path><path stroke="#000" stroke-linecap="round" stroke-miterlimit="10" stroke-width="0.9" d="M256.6 140s2.1 1.7 4.8 4.8c3.7 4.4 5.9 9.8 6.2 15.4l3.3 56.3c0 1.2-.6 2.4-1.8 2.8-5.5 2.3-22.4 8-41-1.3l15.8-64.8s7.1-12.6 12.7-13.2h0Z"></path><path fill="#CCDFFF" d="M230 218.5s-1.6 2-.5 6 .4 12.9-1.9 20c0 0 2.3 20.8 2.4 45 0 1.2.4 2.2 1.1 3 1.7 2 4.9 6.3 6.2 11.9a1 1 0 0 1-1.3 1.3c-3.9-.9-35.6-7.1-75.2-5.6-42.4 1.7-56.5 6.3-56.5 6.3l-9.2 5-15.6-23.2s5.5-22.7 5.8-38.8c.4-16 1-21 2.7-34.5 1.6-13.5 2.6-35.3-5.8-56.1a77 77 0 0 0-10.1-18c-.5-.6-.3-1.5.4-2 5-2.7 15-6.2 26.8-12.7 13-7 21-10 21-10s.6-.5 2.4-1.3c1.8-.8 3 1.1 3 1.1l23.8 24.1 27.5-2.8 26.2-23.6s23.2 8.8 41 20.8c.7.5 1.6.9 2.6 1 2.9.5 6.8 1.6 9.8 4.6 0 0-1.9 21.7-16.2 62.9a36.9 36.9 0 0 1-10.4 15.6Z"></path><path stroke="#000" stroke-linecap="round" stroke-miterlimit="10" stroke-width="0.9" d="M240.4 202.9a36.9 36.9 0 0 1-10.4 15.6s-1.6 2-.5 6 .4 12.9-1.9 20c0 0 2.2 20.6 2.4 44.7 0 1.3.4 2.6 1.3 3.6 1.7 2 4.7 6.2 6 11.6a1 1 0 0 1-1.3 1.3c-3.9-.9-35.6-7.1-75.2-5.6-42.4 1.7-56.5 6.3-56.5 6.3l-9.2 5-15.6-23.2s5.5-22.7 5.8-38.8c.4-16 1-21 2.7-34.5 1.6-13.5 2.6-35.3-5.8-56.1a77 77 0 0 0-10.1-18c-.5-.6-.3-1.5.4-2 5-2.7 15-6.2 26.8-12.7 13-7 21-10 21-10s.6-.5 2.4-1.3c1.8-.8 3 1.1 3 1.1l23.8 24.1 27.5-2.8 26.2-23.6s23.2 8.8 41 20.8c.7.5 1.6.9 2.6 1 2.9.5 6.8 1.6 9.8 4.6"></path><path fill="#fff" d="M169.8 172.6c-38.1-6.6-39.4-59.3-39.4-59.3l10.8-5.5 48.7 1.7 7.4 4.4c2.8 37.3-27.5 58.7-27.5 58.7Z"></path><path stroke="#000" stroke-linecap="round" stroke-miterlimit="10" stroke-width="0.9" d="M169.8 172.6c-38.1-6.6-39.4-59.3-39.4-59.3l10.8-5.5 48.7 1.7 7.4 4.4c2.8 37.3-27.5 58.7-27.5 58.7v0Z"></path><path fill="#F8FF6E" d="m134.1 111.9 4-3.1s-.4-2-3.8-.3c-3.3 1.7-8.5 6.8-8.5 6.8s6.4 50 42 63.8c1.5.5 3.2.3 4.4-.8a89 89 0 0 0 31-65.1l-7.3-3.5c-1-.5-2.2.3-2.1 1.5.6 6.6 1.1 25-8.8 39.6a99.4 99.4 0 0 1-14 16.7 3.4 3.4 0 0 1-4.2.5c-6.6-4-26.4-18.5-33.5-53.8-.2-.9.1-1.8.8-2.3Z"></path><path stroke="#000" stroke-linecap="round" stroke-miterlimit="10" stroke-width="0.9" d="m134.1 111.9 4-3.1s-.4-2-3.8-.3c-3.3 1.7-8.5 6.8-8.5 6.8s6.4 50 42 63.8c1.5.5 3.2.3 4.4-.8a89 89 0 0 0 31-65.1l-7.3-3.5c-1-.5-2.2.3-2.1 1.5.6 6.6 1.1 25-8.8 39.6a99.4 99.4 0 0 1-14 16.7 3.4 3.4 0 0 1-4.2.5c-6.6-4-26.4-18.5-33.5-53.8-.2-.9.1-1.8.8-2.3v0Z"></path><path fill="#0564FF" d="m192.2 266.7.5 3.8c0 .9.8 1.5 1.6 1.4l91.8-6.5c3.1-.2 6.3-.6 9.3-1.2l71.5-14a2 2 0 0 0 1.7-1.5l21.5-98.9c.2-1.2-.7-2.3-1.9-2.2l-79.4 3c-1 0-1.8.8-2 1.7L284.6 257c-.2 1-1 1.7-2 1.8l-89 6.2c-.8.1-1.5.9-1.4 1.8Z"></path><path fill="#fff" d="m109.8 272.1-1.1.4a35.4 35.4 0 0 0-23.2 22v.2c-29.4-.5-27.3-22.9-27.3-22.9 6.1-7.2 13.6-11.6 13.6-11.6l24.1 1.6 13.9 10.3Z"></path><path stroke="#000" stroke-linecap="round" stroke-miterlimit="10" stroke-width="1.4" d="m109.8 272.1-1.1.4a35.4 35.4 0 0 0-23.2 22v.2c-29.4-.5-27.3-22.9-27.3-22.9 6.1-7.2 13.6-11.6 13.6-11.6l24.1 1.6 13.9 10.3h0Z"></path><path fill="#fff" d="m136.1 251-1.9 4c-1 1.9-2 3.8-3.4 5.5l-3.3 4.3-.3.3a6.7 6.7 0 0 1-4.9 2.6h-1.5l8.6-14.5 2.6-4.3a2.4 2.4 0 0 1 2.2-1.2c1.6 0 2.7 1.8 2 3.2Z"></path><path fill="#000" d="m127.5 264.8-.3.3a6.7 6.7 0 0 1-4.9 2.6h-1.5l8.6-14.5c.1 2 0 6.3-2 11.6Z"></path><path stroke="#000" stroke-linecap="round" stroke-miterlimit="10" stroke-width="1.4" d="M120.8 267.8h1.5a7 7 0 0 0 5-2.7l3.5-4.6c1.3-1.7 2.5-3.6 3.4-5.6l2-4c.7-1.4-.4-3.2-2-3.2h-.2c-.8 0-1.5.5-2 1.2l-11.2 18.9v0Z"></path><path fill="#fff" d="m131.7 251.5-10 18.8a4.1 4.1 0 0 1-3.6 2.2h-1.6c-2.9-.1-5.5-.5-5.5-.5l6.4-10.1 8.7-13.7a3.3 3.3 0 0 1 3.5-1.4h.1c2 .5 3 2.8 2 4.7Z"></path><path fill="#000" d="m123.8 258.5-7.3 14c-2.9-.1-5.5-.5-5.5-.5l6.4-10.1 6.4-3.4Z"></path><path stroke="#000" stroke-linecap="round" stroke-miterlimit="10" stroke-width="1.4" d="M111 272s3.7.5 7.1.5c1.5 0 3-.9 3.7-2.2l10-18.8c.9-1.9 0-4.2-2-4.7h-.2a3 3 0 0 0-3.5 1.4L111 272Z"></path><path fill="#fff" d="m126.4 255.3-13.2 16c-.8 1-2 1.6-3.4 1.7a1741.8 1741.8 0 0 0-16 .5 5.8 5.8 0 0 1-3.2-1.7c-2-2.2-5.1-4.7-5.1-4.7l3.3-3.5 6.1-6.3s4.6 3.2 18.7 0l7.9-6.8c.7-.6 1.7-1 2.7-.8h.1c2.6.4 3.8 3.6 2 5.6Z"></path><path fill="#000" d="M93.7 273.5a5.8 5.8 0 0 1-3-1.7c-2.1-2.2-5.2-4.7-5.2-4.7l3.3-3.5 3.8.4s-.5 3.6-1.2 4.7c-.7 1 .5 4 2.3 4.8Z"></path><path stroke="#000" stroke-linecap="round" stroke-miterlimit="10" stroke-width="1.4" d="m126.4 255.3-13.2 16c-.8 1-2 1.6-3.4 1.7l-14.7.6c-1.7 0-3.3-.6-4.5-1.8-2-2.2-5.1-4.7-5.1-4.7l9.4-9.8s4.6 3.2 18.7 0l7.9-6.8c.7-.6 1.7-1 2.7-.8h.1c2.6.4 3.8 3.6 2 5.6v0Zm-12.8 2.1-8.4 7.3"></path><path stroke="#000" stroke-linecap="round" stroke-miterlimit="10" stroke-width="1.4" d="M91.3 263.7s3.6 1 9.2.6"></path><path fill="#fff" d="m98.3 254.3-7.7 13c-.4.6-1.1 1-1.9 1H86c-1 0-1.8-.3-2.5-.8-2.8-2-6.7-3.3-9.4-4a8.6 8.6 0 0 1-4.7-3.4 18.8 18.8 0 0 0-5.8-5.6c-1-.6-2-1.6-2.5-2.8-1.1-2.6-3-5.9-4.3-8a3.7 3.7 0 0 1 5.5-4.6c2.7 2.4 6 6 9 7.5 4.4 2.4 7 1 10.1 2.2 2.3 1 6 3.4 7.8 4.6l.7-.6 1.2-1.2a6.2 6.2 0 0 1 4.8-1.9 3 3 0 0 1 2.4 4.6Z"></path><path fill="#000" d="M85.6 257c.4-5.9-4-8-4.2-8.2 2.3 1 6 3.4 7.8 4.6l-3.6 3.7Z"></path><path stroke="#000" stroke-linecap="round" stroke-miterlimit="10" stroke-width="1.4" d="m98.3 254.3-7.7 13c-.4.6-1.1 1-1.9 1H86c-1 0-1.8-.3-2.5-.8-2.8-2-6.7-3.3-9.4-4a8.6 8.6 0 0 1-4.7-3.4 18.8 18.8 0 0 0-5.8-5.6c-1-.6-2-1.6-2.5-2.8-1.1-2.6-3-5.9-4.3-8a3.7 3.7 0 0 1 5.5-4.6c2.7 2.4 6 6 9 7.5 4.4 2.4 7 1 10.1 2.2 2.3 1 6 3.4 7.8 4.6l1.9-1.8a6.2 6.2 0 0 1 4.8-1.9 3 3 0 0 1 2.4 4.6v0Zm-16.8 6.9 7.7-7.8"></path><path fill="#fff" d="m76.2 321 71.9 81.4-38.3 12A316 316 0 0 1 46.3 336l30-15Z"></path><path fill="#000" d="M58.4 339.4s35.4 37.2 67.2 53.5l10.2-20.8-54.6-40.4-22.8 7.7Z"></path><path stroke="#000" stroke-linecap="round" stroke-miterlimit="10" stroke-width="0.9" d="m76.2 321 71.9 81.4-38.3 12A316 316 0 0 1 46.3 336l30-15Z"></path><path fill="#000" d="M191.6 355.4s-2.6-.4-2.4 2.9c.6 14.9 12.3 31.9 12.3 31.9l16.3-4.1-17.7-26.7-8.5-4Z"></path><path stroke="#000" stroke-linecap="round" stroke-miterlimit="10" stroke-width="1.4" d="M191.6 355.4s-2.6-.4-2.4 2.9c.6 14.9 12.3 31.9 12.3 31.9l16.3-4.1-17.7-26.7-8.5-4h0Z"></path><path fill="#fff" d="m226 387.7-32.6 19.5-7.7 4.7a143 143 0 0 1-40.7 16.5l-8.6-19.8 15.5-9.7 13.9-8.7 41.5-26 18.6 23.5Z"></path><path fill="#000" d="m193.4 407.2-7.7 4.7c-3.5 2-7 4-10.6 5.7a216 216 0 0 1-23.2-18.7l13.9-8.7 27.3 16 .3 1Z"></path><path stroke="#000" stroke-linecap="round" stroke-miterlimit="10" stroke-width="1.4" d="m207.3 364.2-70.9 44.4 8.5 19.8c14.4-3.4 28.1-9 40.8-16.5l40.2-24.2-18.6-23.5h0Z"></path><path fill="#fff" d="M366.9 305.2c-7.5 10.9-24.3 29-61.5 50.2-60.6 34.6-90.5 41.7-90.5 41.7-7.7-25-21-38.9-23.4-41.3-.2-.1 0-.4.1-.4a133 133 0 0 1 20.7.3c12.2-7 25.9-20.8 38.2-33.3 9.9-10 27-23.5 35-29.8 2.6-2 5.6-3.8 8.7-5a23 23 0 0 1 1.8-3.6 9.4 9.4 0 0 1 3.6-3.4l4-2c1-1.5 2.4-2.7 4-3.6.2-4.3 4.2-10.9 12-15.5a49.2 49.2 0 0 1 25-5.9c18.8.5 25 18.3 27 30.2a30 30 0 0 1-4.7 21.4Z"></path><path stroke="#000" stroke-linecap="round" stroke-miterlimit="10" stroke-width="1.4" d="M366.9 305.2c-7.5 10.9-24.3 29-61.5 50.2-60.6 34.6-90.5 41.7-90.5 41.7-7.7-25-21-38.9-23.4-41.3-.2-.1 0-.4.1-.4a133 133 0 0 1 20.7.3c12.2-7 25.9-20.8 38.2-33.3 9.9-10 27-23.5 35-29.8 2.6-2 5.6-3.8 8.7-5a23 23 0 0 1 1.8-3.6 9.4 9.4 0 0 1 3.6-3.4l4-2c1-1.5 2.4-2.7 4-3.6.2-4.3 4.2-10.9 12-15.5a49.2 49.2 0 0 1 25-5.9c18.8.5 25 18.3 27 30.2a30 30 0 0 1-4.7 21.4v0ZM217 356.3l-4.7-.6"></path><path stroke="#000" stroke-linecap="round" stroke-miterlimit="10" stroke-width="1.4" d="m307.6 275 .6-.2c8-3.6 20.4-6.9 20.4-6.9m-25 10.8c9.3-4 19.9-6.4 19.9-6.4m-29.3 15.2 2.6-1c8.1-2.7 18.7-5.3 18.7-5.3M226 365.3s23.5-2.2 51.5-11.2"></path><path fill="#CCDFFF" d="M147.5 401.9s8.2 18.1-3.5 30.7a9.3 9.3 0 0 1-5.3 2.8 156 156 0 0 0-29.5 7.7 34.5 34.5 0 0 1-13.1 2.5h-2.6a7.5 7.5 0 0 1-7.2-5.8 60 60 0 0 1-.8-21.4 45.4 45.4 0 0 1 8.3-20.6 13.6 13.6 0 0 1 14-5.3l2.5.7c2.5.7 4.8.8 7-1 2.8-2.6 13.6-11.8 22.4-8.8 8.8 3 12.7 15.4 12.7 15.4l-5 3Z"></path><path fill="#0564FF" d="m110.3 393.2-.7.2a16 16 0 0 0-9.6 8.6c-.7 1.9-1 4-1.1 6-.3 3.1-.4 6.2-.4 9.3 0 5.8.6 11.6-.8 17.1-.4 1.8-1 3.5-2 5a16.1 16.1 0 0 1-4.9 5.7 7.5 7.5 0 0 1-4.5-5.3 60 60 0 0 1-.8-21.4 45.4 45.4 0 0 1 8.3-20.6 13.6 13.6 0 0 1 14-5.3l2.5.7Z"></path><path fill="#000" d="m86.4 440.4-.1-.6a60 60 0 0 1-.8-21.4c.8-6 2.7-11 4.8-15 .3 5 1 10 1.3 15 .3 7.6-.5 16-5.2 22Z"></path><path stroke="#000" stroke-linecap="round" stroke-miterlimit="10" stroke-width="1.4" d="M147.5 401.9s8.2 18.1-3.5 30.7a9.3 9.3 0 0 1-5.3 2.8 156 156 0 0 0-29.5 7.7 34.5 34.5 0 0 1-13.1 2.5h-2.6a7.5 7.5 0 0 1-7.2-5.8 60 60 0 0 1-.8-21.4 45.4 45.4 0 0 1 8.3-20.6 13.6 13.6 0 0 1 14-5.3l2.5.7c2.5.7 4.8.8 7-1 2.8-2.6 13.6-11.8 22.4-8.8 8.8 3 12.7 15.4 12.7 15.4l-5 3v0Z"></path><path stroke="#000" stroke-linecap="round" stroke-miterlimit="10" stroke-width="1.4" d="M143 413.2s2.3 6-1.6 18M137 414s2.2 5.9-1.8 17.8m-4.4-17.1s2.3 5.9-1.7 17.9"></path><path fill="#fff" d="M230 410a45.8 45.8 0 0 0-1.3 27.5 198.9 198.9 0 0 1-35.7-16.2l-31-18-17.3-10-1-.6 30.6-20.7 20.3 13.6a142.5 142.5 0 0 0 38.2 18.1s-1.4 2.4-2.8 6.3Z"></path><path fill="#000" d="M173.4 392.7c-3.6 4.7-7.7 7.3-11.5 10.6l-17.2-10 33.4-15.5s0 9-4.7 15Z"></path><path stroke="#000" stroke-linecap="round" stroke-miterlimit="10" stroke-width="1.4" d="M230 410a45.8 45.8 0 0 0-1.3 27.5 198.9 198.9 0 0 1-35.7-16.2l-49.3-28.6 30.6-20.7 20.3 13.6a142.5 142.5 0 0 0 38.2 18.1s-1.4 2.4-2.8 6.3Z"></path><path fill="#fff" d="M157.9 395.5a83.9 83.9 0 0 0-17.2 12.7c-.8.8-2 .8-3 .1a114 114 0 0 1-22.3-25.2c-16-12-40.1-21.3-59.7-34.5-21.5-14.5-32-26.3-35.9-32.2-3.9-6-6.4-5.5-8.2-6.9-1.8-1.4-4.8-5.3-7.8-14.3-1.7-5.2-2.6-12-3.1-17-.4-3.9.7-7.9 3-11.1 1.7-2.5 3.5-4.8 5.1-6.7A30.4 30.4 0 0 1 35.3 250a61.9 61.9 0 0 1 22.2 6.5 28 28 0 0 1 5.2 7.5c.5.9 1.2 1.5 2 2 8.7 4.6 17.3 20 20 25.2.4 1 1.3 1.6 2.4 1.7 4 .4 5.6 3.4 6.2 5.4.2.7.9 1.2 1.6 1.3 3.7.3 12.7 10 24.6 23.1 16.2 17.8 49 42.8 56.5 48.5 1.2.9 2 2.3 2.1 3.9.4 8.7-11.8 16-20.2 20.4Z"></path><path stroke="#000" stroke-linecap="round" stroke-miterlimit="10" stroke-width="1.4" d="M157.9 395.5a83.9 83.9 0 0 0-17.2 12.7c-.8.8-2 .8-3 .1a114 114 0 0 1-22.3-25.2c-16-12-40.1-21.3-59.7-34.5-21.5-14.5-32-26.3-35.9-32.2-3.9-6-6.4-5.5-8.2-6.9-1.8-1.4-4.8-5.3-7.8-14.3-1.7-5.2-2.6-12-3.1-17-.4-3.9.7-7.9 3-11.1 1.7-2.5 3.5-4.8 5.1-6.7A30.4 30.4 0 0 1 35.3 250a61.9 61.9 0 0 1 22.2 6.5 28 28 0 0 1 5.2 7.5c.5.9 1.2 1.5 2 2 8.7 4.6 17.3 20 20 25.2.4 1 1.3 1.6 2.4 1.7 4 .4 5.6 3.4 6.2 5.4.2.7.9 1.2 1.6 1.3 3.7.3 12.7 10 24.6 23.1 16.2 17.8 49 42.8 56.5 48.5 1.2.9 2 2.3 2.1 3.9.4 8.7-11.8 16-20.2 20.4Z"></path><path stroke="#000" stroke-linecap="round" stroke-miterlimit="10" stroke-width="1.4" d="M115.4 383.1c-6.1-9-10.2-16.4-10.2-16.4"></path><path fill="#CCDFFF" d="M305.6 434.8c0 2.8-1 5.2-2.2 7a8 8 0 0 1-7 3.6h-2l-37.3-1.7a125 125 0 0 1-26.1-4 3.3 3.3 0 0 1-2.3-2.2A46 46 0 0 1 230 410c1.4-4 2.8-6.3 2.8-6.3a142 142 0 0 1-16.6-6.2 31 31 0 0 1 15.6-8.7c10.5-1.8 18.6 7 25.7 7.6 7.2.7 24.2-8.3 35.6 0 10.9 8 12.8 31.7 12.5 38.4Z"></path><path fill="#0564FF" d="M305.6 434.8c0 2.8-1 5.2-2.2 7a8 8 0 0 1-7 3.6h-2c1.7-.9 3-2.3 3.7-5 1.2-4.6.3-27.2-8.3-37-8.6-10-24.6-5.6-32.1-4.7-7.6 1-9.7-2.5-17.5-6.7a29 29 0 0 0-9.3-3l1-.2c10.4-1.8 18.5 7 25.6 7.6 7.2.7 24.2-8.3 35.6 0 10.9 8 12.8 31.7 12.5 38.4Z"></path><path stroke="#000" stroke-linecap="round" stroke-miterlimit="10" stroke-width="1.4" d="M305.6 434.8c0 2.8-1 5.2-2.2 7a8 8 0 0 1-7 3.6h-2l-37.3-1.7a125 125 0 0 1-26.1-4 3.3 3.3 0 0 1-2.3-2.2s0 0 0 0A46 46 0 0 1 230 410c1.4-4 2.8-6.3 2.8-6.3a142 142 0 0 1-16.6-6.2 31 31 0 0 1 15.6-8.7c10.5-1.8 18.6 7 25.7 7.6 7.2.7 24.2-8.3 35.6 0 10.9 8 12.8 31.7 12.5 38.4h0Z"></path><path stroke="#000" stroke-linecap="round" stroke-miterlimit="10" stroke-width="1.4" d="M235.3 413.6s-3.4 6.7-.2 21.4m8.8-21.4s-3.5 6.7-.2 21.4m8.7-21.4s-3.4 6.7-.2 21.4"></path><path fill="#fff" d="M154.5 183v.7a55.8 55.8 0 1 1 0-.6Z"></path><path fill="#CCDFFF" d="m64.2 170.4-7.5 11.9c-2 3-2.4 7-1 10.4l1.5 3.9a8 8 0 0 0 6.4 5l8.7 1.3a4 4 0 0 1 3.5 4v2c0 .7.2 1.5.7 2.2l4.7 7c.6.9.8 2 .5 3-.4 1.3-.1 2.5.7 3.5l7.6 9c.7 1 1.8 1.6 3 1.8l1.8.3c2 .4 3.9-.3 5-1.8l5-6.2 1.7-1.5 3.5-2.6c.8-.7 1.2-1.8 1-2.9l-.7-3.2c-.5-2.3.1-4.7 1.7-6.5l7-8.3c.6-.6 1-1.4 1.2-2.3l1.2-4.7c.3-1-.7-2-1.7-1.6l-1.3.4c-2.1.7-4.4.3-6-1l-1.7-1.3a6.4 6.4 0 0 1-1.7-2l-6-10.8a12 12 0 0 0-8-5.8L70.2 168c-2.3-.6-4.6.4-5.9 2.4Z"></path><path stroke="#000" stroke-linecap="round" stroke-miterlimit="10" stroke-width="1.4" d="m64.2 170.4-7.5 11.9c-2 3-2.4 7-1 10.4l1.5 3.9a8 8 0 0 0 6.4 5l8.7 1.3a4 4 0 0 1 3.5 4v2c0 .7.2 1.5.7 2.2l4.7 7c.6.9.8 2 .5 3-.4 1.3-.1 2.5.7 3.5l7.6 9c.7 1 1.8 1.6 3 1.8l1.8.3c2 .4 3.9-.3 5-1.8l5-6.2 1.7-1.5 3.5-2.6c.8-.7 1.2-1.8 1-2.9l-.7-3.2c-.5-2.3.1-4.7 1.7-6.5l7-8.3c.6-.6 1-1.4 1.2-2.3l1.2-4.7c.3-1-.7-2-1.7-1.6l-1.3.4c-2.1.7-4.4.3-6-1l-1.7-1.3a6.4 6.4 0 0 1-1.7-2l-6-10.8a12 12 0 0 0-8-5.8L70.2 168c-2.3-.6-4.6.4-5.9 2.4h0Z"></path><path fill="#FEF7F9" d="m119.7 218.2-4.2 3.5a2 2 0 0 0-.7 1.2l-.2 1v.5c.3.2.3.5.1.7l-.7 1c-.3.3-.3.7-.2 1.1l.1.6c0 .3.3.5.6.5 1 0 2-.4 2.7-1.2l.4-.4c.2-.2.3-.5.3-.8l.1-.5c0-.4.2-.8.5-1l1.7-2.3c.6-.8.9-1.8.7-2.7v-.7c-.1-.6-.8-.8-1.2-.5Z"></path><path stroke="#000" stroke-linecap="round" stroke-miterlimit="10" stroke-width="1.4" d="m119.7 218.2-4.2 3.5a2 2 0 0 0-.7 1.2l-.2 1v.5c.3.2.3.5.1.7l-.7 1c-.3.3-.3.7-.2 1.1l.1.6c0 .3.3.5.6.5 1 0 2-.4 2.7-1.2l.4-.4c.2-.2.3-.5.3-.8l.1-.5c0-.4.2-.8.5-1l1.7-2.3c.6-.8.9-1.8.7-2.7v-.7c-.1-.6-.8-.8-1.2-.5h0Z"></path><path fill="#CCDFFF" d="M154.5 183v.7l-2.3-7.2c-.4-1.1-1-2.1-1.6-3l-1.1-1.4c-.8-1-2.3-.6-2.5.5l-1.3 5.4c-.2.9-.2 1.8-.1 2.7l.3 3.9c.2 1.4 0 2.8-.5 4.1l-.1.2a.9.9 0 0 1-1.6 0l-3-7a7 7 0 0 0-2-2.8l-3-2.3a8.1 8.1 0 0 0-5.9-1.7l-7.1.7c-1.1 0-2.3-.2-3.2-.9l-1.7-1.3c-.3-.2-.7-.4-1.2-.4h-.2c-.4 0-.6.4-.3.7l3.8 4.2c.2.3.5.4.8.4.3 0 .6 0 .8-.3a1.5 1.5 0 0 1 1.2-.4h.1c.3 0 .5 0 .7-.3.1-.2.4-.3.6-.3l1.6-.1c.3 0 .5 0 .6.2 1.2 1 1.8 2.7 1.5 4.3l-.3 1c-.1.8-.4 1.4-1 1.8l-3.9 4a11 11 0 0 1-3.7 2.7l-3.3 1.5c-1 .4-2.1 0-2.4-1l-.5-1.4c-.2-.6-.5-1.2-1-1.8l-6.9-9a18.7 18.7 0 0 1-2.5-4.6c-.4-.9-.5-1.8-.3-2.8l.5-3.5c0-.8-.7-1.5-1.5-1.3l-2.1.6c-1.4.4-2.8-.2-3.6-1.3l-1.8-2.9a1 1 0 0 0-1.2-.4l-.4.2a1 1 0 0 0-.6.8l-.3 2.6c-.1.7-1 1-1.5.4l-2-1.9c-.6-.7-1.7-.7-2.4 0l-1.6 1.4c-.2.2-.6.2-1 0l-.7-.5c-.2-.1 0-.4.2-.4h.3c.4 0 1-.2 1.3-.5.7-.7.5-1.9-.3-2.4l-2.3-1.5a1 1 0 0 1-.5-.7 1 1 0 0 0-1.3-.8l-4.2 1.4-1 .7-2 2.2a5 5 0 0 1-2.9 1.6l-1.4.3c-.6.1-1.2-.1-1.6-.6l-.7-.9c-.4-.5-.4-1.1-.2-1.7l1.3-2.7c.7-1.4 2.2-2 3.7-1.7l.8.2a1.8 1.8 0 0 0 2.2-2.3l-.7-2.4a1 1 0 0 1 .6-1.3l2.2-.6c.6-.2 1-.8.9-1.4l-.2-1.4a4.3 4.3 0 0 1 .4-2.6c.2-.5 1-.5 1.2 0l1 2.8a1.6 1.6 0 0 0 1.5 1 3 3 0 0 0 2.7-1.6l2-5.2a6 6 0 0 1 2.9-3l2-1a11 11 0 0 1 2.7-1.1l4.7-1.3c1.3-.3 2.7.3 3.2 1.5l.1.2c.3.5 1 .7 1.4.4l3.9-2.7c.9-.6 1.4-1.6 1.5-2.6l.2-2.4c0-.4.2-.8.3-1.1l.3-1c0-.7-.2-1.2-.7-1.7a55.8 55.8 0 0 1 47.2 55.2Z"></path><path stroke="#000" stroke-linecap="round" stroke-miterlimit="10" stroke-width="1.4" d="M154.5 183v.7l-2.3-7.2c-.4-1.1-1-2.1-1.6-3l-1.1-1.4c-.8-1-2.3-.6-2.5.5l-1.3 5.4c-.2.9-.2 1.8-.1 2.7l.3 3.9c.2 1.4 0 2.8-.5 4.1l-.1.2a.9.9 0 0 1-1.6 0l-3-7a7 7 0 0 0-2-2.8l-3-2.3a8.1 8.1 0 0 0-5.9-1.7l-7.1.7c-1.1 0-2.3-.2-3.2-.9l-1.7-1.3c-.3-.2-.7-.4-1.2-.4h-.2c-.4 0-.6.4-.3.7l3.8 4.2c.2.3.5.4.8.4.3 0 .6 0 .8-.3a1.5 1.5 0 0 1 1.2-.4h.1c.3 0 .5 0 .7-.3.1-.2.4-.3.6-.3l1.6-.1s0 0 0 0c.3 0 .5 0 .6.2 1.2 1 1.8 2.7 1.5 4.3l-.3 1c-.1.8-.4 1.4-1 1.8l-3.9 4a11 11 0 0 1-3.7 2.7l-3.3 1.5c-1 .4-2.1 0-2.4-1l-.5-1.4c-.2-.6-.5-1.2-1-1.8l-6.9-9a18.7 18.7 0 0 1-2.5-4.6c-.4-.9-.5-1.8-.3-2.8l.5-3.5c0-.8-.7-1.5-1.5-1.3l-2.1.6c-1.4.4-2.8-.2-3.6-1.3l-1.8-2.9a1 1 0 0 0-1.2-.4l-.4.2a1 1 0 0 0-.6.8l-.3 2.6c-.1.7-1 1-1.5.4l-2-1.9c-.6-.7-1.7-.7-2.4 0l-1.6 1.4c-.2.2-.6.2-1 0l-.7-.5c-.2-.1 0-.4.2-.4 0 0 0 0 0 0h.3c.4 0 1-.2 1.3-.5.7-.7.5-1.9-.3-2.4l-2.3-1.5a1 1 0 0 1-.5-.7 1 1 0 0 0-1.3-.8l-4.2 1.4-1 .7-2 2.2a5 5 0 0 1-2.9 1.6l-1.4.3c-.6.1-1.2-.1-1.6-.6l-.7-.9c-.4-.5-.4-1.1-.2-1.7l1.3-2.7c.7-1.4 2.2-2 3.7-1.7l.8.2a1.8 1.8 0 0 0 2.2-2.3l-.7-2.4a1 1 0 0 1 .6-1.3l2.2-.6c.6-.2 1-.8.9-1.4l-.2-1.4a4.3 4.3 0 0 1 .4-2.6c.2-.5 1-.5 1.2 0l1 2.8a1.6 1.6 0 0 0 1.5 1 3 3 0 0 0 2.7-1.6l2-5.2a6 6 0 0 1 2.9-3l2-1a11 11 0 0 1 2.7-1.1l4.7-1.3c1.3-.3 2.7.3 3.2 1.5l.1.2c.3.5 1 .7 1.4.4l3.9-2.7c.9-.6 1.4-1.6 1.5-2.6l.2-2.4c0-.4.2-.8.3-1.1l.3-1c0-.7-.2-1.2-.7-1.7a55.8 55.8 0 0 1 47.2 55.2h0Z"></path><path stroke="#000" stroke-linecap="round" stroke-miterlimit="10" stroke-width="1.4" d="M154.5 183v.7a55.8 55.8 0 1 1 0-.6h0Z"></path><path fill="#fff" d="M191 124.7h-51l3.3-44.8h44.4l3.3 44.8Z"></path><path fill="#000" d="M144.3 88.9s4.8 32.3 22.3 31.5c20-.8 25-34.8 25-34.8L144.3 89Z"></path><path stroke="#000" stroke-linecap="round" stroke-miterlimit="10" stroke-width="1.4" d="m191.3 110.4-1.2-.7a.5.5 0 0 1-.2-.4l-2.2-29.4h-44.4l-2 27.6c0 .2-.2.4-.4.5l-1.3.7"></path><path fill="#fff" d="M127.9 59.3c-1-6.7 2-12.7 6.7-13.4 4.7-.7 9.3 4.2 10.2 10.9 1 6.6-2 12.6-6.7 13.3-4.6.7-9.2-4.1-10.2-10.8Z"></path><path stroke="#000" stroke-linecap="round" stroke-miterlimit="10" stroke-width="1.4" d="M138.2 70.1c-4.7.7-9.3-4.1-10.3-10.8-1-6.7 2-12.7 6.7-13.4 4.7-.7 9.3 4.2 10.2 10.9.2 1 .2 1.9.2 2.8"></path><path stroke="#000" stroke-linecap="round" stroke-miterlimit="10" stroke-width="1.4" d="M138.5 60.2s-1.5-1.4-1-2.7c.4-.8 1.2-.9 1.9-.8.4 0 .7-.3.6-.6-.6-1.5-2.1-4.8-4.7-5-3.6-.4-4.7 6 1.6 13.7"></path><path fill="#fff" d="M208.2 67.4c2.7-6.2 1.5-12.8-2.8-14.7-4.4-2-10.1 1.5-12.9 7.6-2.8 6.2-1.5 12.7 2.8 14.7s10-1.5 12.9-7.6Z"></path><path stroke="#000" stroke-linecap="round" stroke-miterlimit="10" stroke-width="1.4" d="M195.3 75c4.3 2 10-1.5 12.9-7.6 2.7-6.2 1.5-12.8-2.8-14.7-4.4-2-10.1 1.5-12.9 7.6l-1 2.7"></path><path stroke="#000" stroke-linecap="round" stroke-miterlimit="10" stroke-width="1.4" d="M197.7 65.4s1.8-1 1.7-2.4c-.2-.8-1-1.2-1.6-1.3-.4 0-.6-.4-.4-.7 1-1.3 3.3-4 5.8-3.5 3.6.6 3 7-5.2 12.7"></path><path fill="#fff" d="M137.3 47v18.4c0 14.2 5 28 14.2 39a21.7 21.7 0 0 0 33.8-.8 72 72 0 0 0 14-32.3L204 42l-3.2-18.5-12.3-8.8-34.6-1.6-16.6 16v18Z"></path><path stroke="#000" stroke-linecap="round" stroke-miterlimit="10" stroke-width="1.4" d="M137.3 47v18.4c0 14.2 5 28 14.2 39a21.7 21.7 0 0 0 33.8-.8 72 72 0 0 0 14-32.3L204 42l-3.2-18.5-12.3-8.8-34.6-1.6-16.6 16v18Z"></path><path fill="#000" d="M138.1 63.3c.9 0 1.6-.7 1.6-1.6l-.6-13c-.2-3 .6-6.2 2.2-8.8a11 11 0 0 1 2.7-3c.3-.2.4-.5.3-.8-.5-1.7-1.6-7.1 2.3-11.7 3.6-4.2 7.4-5.9 9-6.5a2 2 0 0 1 1.4.1 55.8 55.8 0 0 0 22.6 5c11.9-.4 13.3-.3 15.5 1.3 4 2.8 6 8.1 6.2 20.5.2 12.4-.8 18.9-.8 18.9l2.3-7.3c1-3.2 2-3.8 3.3-6.2 1.5-3 9.5-22.1-2.4-29.7a.8.8 0 0 1-.2-1.2c.6-.9 1.4-2.3.5-3.8-1.5-2.3-8-12.9-23.5-14.5-14.5-1.4-23.1-1.7-24 .9-.2.3-.4.6-.8.8C152.2 4 136 10.5 137.1 16l-.3.3c-1 .2-4.3 1.4-3.6 6.7 0 .4 0 .7-.2 1-.7 2-3 9.1-1 15.2 2.1 7 5.4 5.6 4.6 22.5 0 1 .7 1.6 1.5 1.6Z"></path><path fill="#000" d="M159.2 53.3c0-.7-.2-1.3-.6-1.3-.3 0-.7.5-.7 1.2s.2 1.3.6 1.3c.3 0 .7-.5.7-1.2Zm26.5 2.7c0-.7-.2-1.3-.6-1.3-.4 0-.7.5-.7 1.2s.2 1.3.5 1.3c.4 0 .7-.5.8-1.2Z"></path><path stroke="#000" stroke-linecap="round" stroke-miterlimit="10" stroke-width="1.4" d="M163.3 44.4s-2.6-7.6-13 1.4m31.4 1.4s4-7 12.7 3.8m-26.7 23.6s4.7 3.1 8.8 0"></path><path fill="#000" d="M158.6 81a66 66 0 0 0 22.4.2c1-.2 1.7.7 1.4 1.6-1.3 3.5-4.8 10.3-13.1 9.9-8.3-.4-11.2-6.8-12.1-10-.3-1 .5-1.8 1.4-1.6Z"></path></svg>